<?xml version="1.0" encoding="utf-8"?>
<!-- Generator: Adobe Illustrator 18.0.0, SVG Export Plug-In . SVG Version: 6.00 Build 0)  -->
<!DOCTYPE svg PUBLIC "-//W3C//DTD SVG 1.1//EN" "http://www.w3.org/Graphics/SVG/1.1/DTD/svg11.dtd">
<svg version="1.1" id="Layer_1" xmlns="http://www.w3.org/2000/svg" xmlns:xlink="http://www.w3.org/1999/xlink" x="0px" y="0px"
	 viewBox="0 0 1400 980" enable-background="new 0 0 1400 980" xml:space="preserve">
<g>
	<rect fill="#E2E2E2" width="1400" height="980"/>
</g>
<g>
	<g>
		<path fill="#A2C4DD" d="M1139.5,341.6c0.2-0.9,0.3-1.8,0.3-2.8c0-9.1-7.4-16.4-16.4-16.4c-0.7,0-1.5,0.1-2.2,0.2
			c0-0.1,0-0.1,0-0.2c0-15.5-12.5-28-28-28c-13.1,0-24.1,9-27.1,21.1c-0.3,0-0.6,0-0.9,0c-4.9,0-9.2,2.1-12.2,5.5
			c-2.7-2-6.1-3.2-9.8-3.2c-7.5,0-13.9,5.1-15.8,12c-2-1.2-4.3-1.9-6.8-1.9c-7.4,0-13.4,6-13.4,13.4c0,0.1,0,0.3,0,0.4H1139.5z"/>
	</g>
	<g>
		<path d="M1141.2,343.6h-135.9l-0.1-1.9c0-0.2,0-0.4,0-0.5c0-8.5,6.9-15.4,15.4-15.4c1.9,0,3.8,0.4,5.6,1.1
			c2.8-6.7,9.5-11.2,16.9-11.2c3.4,0,6.6,0.9,9.5,2.7c3.2-3,7.4-4.7,11.8-4.9c3.9-12.5,15.4-21,28.6-21c15.9,0,28.9,12.4,29.9,28
			c0.1,0,0.2,0,0.2,0c10.2,0,18.4,8.3,18.4,18.4c0,1-0.1,2-0.3,3.1L1141.2,343.6z M1009.4,339.6h128.4c0-0.3,0-0.5,0-0.8
			c0-8-6.5-14.4-14.4-14.4c-0.6,0-1.2,0-1.9,0.1l-2.3,0.3l0-2.5c0-14.4-11.7-26-26-26c-11.9,0-22.3,8-25.2,19.6l-0.4,1.6l-1.9-0.1
			c-0.1,0-0.3,0-0.5,0c-4.1,0-8,1.8-10.7,4.8l-1.2,1.4l-1.5-1.1c-2.5-1.9-5.5-2.9-8.6-2.9c-6.4,0-12.1,4.3-13.8,10.6l-0.7,2.5
			l-2.2-1.3c-1.8-1-3.8-1.6-5.8-1.6C1014.9,329.8,1010.2,334.1,1009.4,339.6z"/>
	</g>
	<g>
		<rect x="1127.5" y="339.6" width="43.9" height="4"/>
	</g>
	<g>
		<rect x="1160" y="326" width="48.3" height="4"/>
	</g>
	<g>
		<g>
			<path fill="#A2C4DD" d="M437.5,344.5c-0.1-8-6.6-14.5-14.7-14.5c-0.6,0-1.2,0-1.8,0.1c-3.2-7.2-10.5-12.2-18.9-12.2
				c-11.4,0-20.7,9.3-20.7,20.7c0,0.4,0,0.7,0,1.1c0,0,0,0,0,0c-3.6,0-6.7,1.9-8.4,4.8H437.5z"/>
		</g>
		<g>
			<path d="M439.5,346.5h-70l1.8-3c1.8-3,4.8-5,8.1-5.6c0.4-12.2,10.4-22,22.7-22c8.4,0,16.1,4.7,20.1,12.1c0.2,0,0.4,0,0.6,0
				c9.1,0,16.5,7.4,16.7,16.5L439.5,346.5z M378.1,342.5h57.2c-1-5.9-6.3-10.5-12.5-10.5c-0.5,0-1,0-1.6,0.1l-1.5,0.2l-0.6-1.3
				c-3-6.7-9.7-11-17-11c-10.3,0-18.7,8.4-18.7,18.7c0,0.3,0,0.7,0,1l0.1,2.1l-2.2,0C380.2,341.8,379.1,342,378.1,342.5z"/>
		</g>
		<g>
			<rect x="340.6" y="342.5" width="59.7" height="4"/>
		</g>
		<g>
			<rect x="320.1" y="329.3" width="30.7" height="4"/>
		</g>
	</g>
	<g>
		<path d="M639.6,371.3c-1.2,0-2.2-1-2.2-2.2s1-2.2,2.2-2.2s2.2,1,2.2,2.2S640.8,371.3,639.6,371.3z M639.6,367.3
			c-1,0-1.8,0.8-1.8,1.8c0,1,0.8,1.8,1.8,1.8c1,0,1.8-0.8,1.8-1.8C641.3,368.1,640.5,367.3,639.6,367.3z"/>
	</g>
	<g>
		<rect x="778.1" y="272.3" width="34.3" height="4"/>
	</g>
	<g>
		<rect x="744.2" y="259.3" width="162.8" height="4"/>
	</g>
	<g>
		<path d="M486.7,113.7H499l27.7,54.7h0.6l27.2-54.7h12.1V185h-12.1v-58.4h-0.4L524.9,185h-2.5l-29.6-58H492v58h-5.3V113.7z"/>
		<path d="M583.2,113.7h12V160c0,3,0.5,5.9,1.6,8.6c1,2.7,2.5,5,4.5,7c1.9,2,4.3,3.6,7,4.8c2.8,1.2,5.8,1.8,9.2,1.8
			c3.4,0,6.5-0.6,9.2-1.8s5-2.8,7-4.8c1.9-2,3.4-4.3,4.4-7c1-2.7,1.5-5.5,1.5-8.6v-46.3h5.3V160c0,3.7-0.6,7.1-1.8,10.3
			s-3,6-5.6,8.5c-2.5,2.4-5.7,4.4-9.7,5.8c-3.9,1.4-8.7,2.1-14.2,2.1c-4.9,0-9.3-0.7-13.1-2.1c-3.8-1.4-6.9-3.4-9.5-5.8
			c-2.6-2.5-4.5-5.3-5.8-8.6c-1.3-3.3-2-6.8-2-10.5V113.7z"/>
		<path d="M661.4,113.7h12.3l27.7,54.7h0.6l27.2-54.7h12.1V185h-12.1v-58.4h-0.4L699.6,185h-2.5l-29.6-58h-0.8v58h-5.3V113.7z"/>
		<path d="M759.1,113.7h28.7c3.8,0,7.3,0.4,10.5,1.3c3.2,0.9,5.9,2,8.2,3.6s4,3.4,5.3,5.5c1.3,2.1,1.9,4.5,1.9,7.1
			c0,2-0.2,3.7-0.6,5.2c-0.4,1.5-1.1,3-2.1,4.3s-2.3,2.6-4,3.7s-3.8,2.4-6.3,3.6v0.2c2.5,0.4,4.8,1.1,6.9,2c2,1,3.8,2.2,5.3,3.7
			c1.5,1.5,2.6,3.2,3.4,5.2c0.8,2,1.2,4.2,1.2,6.5c0,2.7-0.6,5.3-1.8,7.6c-1.2,2.3-2.8,4.4-5,6.1c-2.2,1.7-4.8,3.1-7.9,4.1
			c-3.1,1-6.5,1.5-10.3,1.5h-33.3V113.7z M771.1,145.8h15.3c2.4,0,4.5-0.3,6.4-1c1.9-0.7,3.4-1.6,4.7-2.8c1.3-1.2,2.2-2.6,2.9-4.3
			c0.7-1.7,1-3.5,1-5.4c0-2.1-0.4-4-1.2-5.7c-0.8-1.7-2-3.2-3.7-4.4c-1.7-1.2-3.8-2.1-6.4-2.8s-5.7-1-9.2-1h-9.9V145.8z
			 M771.1,179.8h12.9c3.5,0,6.5-0.3,9.1-1c2.5-0.7,4.6-1.6,6.3-2.8c1.7-1.2,2.9-2.7,3.7-4.4c0.8-1.7,1.2-3.5,1.2-5.5
			c0-2.2-0.4-4.3-1.1-6.3c-0.7-2-1.9-3.6-3.5-5c-1.6-1.4-3.8-2.5-6.4-3.4c-2.6-0.8-5.9-1.2-9.7-1.2h-12.6V179.8z"/>
		<path d="M858.5,112.1l33.6,72.9h-12.2L869,161.2h-30.6L827.1,185h-6l34.4-72.9H858.5z M840.5,156.6h26.3l-12.9-28.2L840.5,156.6z"
			/>
		<path d="M901.2,113.7h12V185h-12V113.7z"/>
	</g>
	<g>
		<g>
			<polygon fill="#F49549" points="1002.6,617.4 1002.6,878.9 872.2,878.9 872.2,617.4 885.2,617.4 885.2,566.3 989.6,566.3 
				989.6,617.4 			"/>
			<path d="M1004.6,880.9H870.2V615.4h13v-51.1h108.4v51.1h13V880.9z M874.2,876.9h126.4V619.4h-13v-51.1H887.2v51.1h-13V876.9z"/>
		</g>
		<g>
			<line fill="#68C4A2" x1="896.7" y1="578.4" x2="933" y2="578.4"/>
			<rect x="896.7" y="576.4" width="36.2" height="4"/>
		</g>
		<g>
			<line fill="#68C4A2" x1="942.5" y1="578.4" x2="978.8" y2="578.4"/>
			<rect x="942.5" y="576.4" width="36.2" height="4"/>
		</g>
		<g>
			<line fill="#68C4A2" x1="896.7" y1="588.4" x2="933" y2="588.4"/>
			<rect x="896.7" y="586.4" width="36.2" height="4"/>
		</g>
		<g>
			<line fill="#68C4A2" x1="942.5" y1="588.4" x2="978.8" y2="588.4"/>
			<rect x="942.5" y="586.4" width="36.2" height="4"/>
		</g>
		<g>
			<line fill="#68C4A2" x1="896.7" y1="598.4" x2="933" y2="598.4"/>
			<rect x="896.7" y="596.4" width="36.2" height="4"/>
		</g>
		<g>
			<line fill="#68C4A2" x1="942.5" y1="598.4" x2="978.8" y2="598.4"/>
			<rect x="942.5" y="596.4" width="36.2" height="4"/>
		</g>
		<g>
			<line fill="#68C4A2" x1="896.7" y1="608.5" x2="933" y2="608.5"/>
			<rect x="896.7" y="606.5" width="36.2" height="4"/>
		</g>
		<g>
			<line fill="#68C4A2" x1="942.5" y1="608.5" x2="978.8" y2="608.5"/>
			<rect x="942.5" y="606.5" width="36.2" height="4"/>
		</g>
		<g>
			<line fill="#68C4A2" x1="885.5" y1="631" x2="990.2" y2="631"/>
			<rect x="885.5" y="629" width="104.7" height="4"/>
		</g>
		<g>
			<line fill="#68C4A2" x1="885.5" y1="642.2" x2="990.2" y2="642.2"/>
			<rect x="885.5" y="640.2" width="104.7" height="4"/>
		</g>
		<g>
			<line fill="#68C4A2" x1="885.5" y1="653.3" x2="990.2" y2="653.3"/>
			<rect x="885.5" y="651.3" width="104.7" height="4"/>
		</g>
		<g>
			<line fill="#68C4A2" x1="885.5" y1="664.5" x2="990.2" y2="664.5"/>
			<rect x="885.5" y="662.5" width="104.7" height="4"/>
		</g>
		<g>
			<line fill="#68C4A2" x1="885.5" y1="675.7" x2="990.2" y2="675.7"/>
			<rect x="885.5" y="673.7" width="104.7" height="4"/>
		</g>
		<g>
			<line fill="#68C4A2" x1="885.5" y1="686.8" x2="990.2" y2="686.8"/>
			<rect x="885.5" y="684.8" width="104.7" height="4"/>
		</g>
		<g>
			<line fill="#68C4A2" x1="885.5" y1="698" x2="990.2" y2="698"/>
			<rect x="885.5" y="696" width="104.7" height="4"/>
		</g>
		<g>
			<line fill="#68C4A2" x1="885.5" y1="709.2" x2="990.2" y2="709.2"/>
			<rect x="885.5" y="707.2" width="104.7" height="4"/>
		</g>
		<g>
			<line fill="#68C4A2" x1="885.5" y1="720.4" x2="990.2" y2="720.4"/>
			<rect x="885.5" y="718.4" width="104.7" height="4"/>
		</g>
		<g>
			<line fill="#68C4A2" x1="885.5" y1="731.5" x2="990.2" y2="731.5"/>
			<rect x="885.5" y="729.5" width="104.7" height="4"/>
		</g>
		<g>
			<line fill="#68C4A2" x1="885.5" y1="742.7" x2="990.2" y2="742.7"/>
			<rect x="885.5" y="740.7" width="104.7" height="4"/>
		</g>
		<g>
			<line fill="#68C4A2" x1="885.5" y1="753.9" x2="990.2" y2="753.9"/>
			<rect x="885.5" y="751.9" width="104.7" height="4"/>
		</g>
		<g>
			<line fill="#68C4A2" x1="885.5" y1="765" x2="990.2" y2="765"/>
			<rect x="885.5" y="763" width="104.7" height="4"/>
		</g>
		<g>
			<line fill="#68C4A2" x1="885.5" y1="776.2" x2="990.2" y2="776.2"/>
			<rect x="885.5" y="774.2" width="104.7" height="4"/>
		</g>
		<g>
			<line fill="#68C4A2" x1="885.5" y1="787.4" x2="990.2" y2="787.4"/>
			<rect x="885.5" y="785.4" width="104.7" height="4"/>
		</g>
		<g>
			<line fill="#68C4A2" x1="885.5" y1="798.5" x2="990.2" y2="798.5"/>
			<rect x="885.5" y="796.5" width="104.7" height="4"/>
		</g>
		<g>
			<line fill="#68C4A2" x1="885.5" y1="809.7" x2="990.2" y2="809.7"/>
			<rect x="885.5" y="807.7" width="104.7" height="4"/>
		</g>
		<g>
			<line fill="#68C4A2" x1="885.5" y1="820.9" x2="990.2" y2="820.9"/>
			<rect x="885.5" y="818.9" width="104.7" height="4"/>
		</g>
		<g>
			<line fill="#68C4A2" x1="885.5" y1="832" x2="990.2" y2="832"/>
			<rect x="885.5" y="830" width="104.7" height="4"/>
		</g>
		<g>
			<line fill="#68C4A2" x1="885.5" y1="843.2" x2="990.2" y2="843.2"/>
			<rect x="885.5" y="841.2" width="104.7" height="4"/>
		</g>
		<g>
			<line fill="#68C4A2" x1="885.5" y1="854.4" x2="990.2" y2="854.4"/>
			<rect x="885.5" y="852.4" width="104.7" height="4"/>
		</g>
		<g>
			<line fill="#68C4A2" x1="885.5" y1="865.5" x2="990.2" y2="865.5"/>
			<rect x="885.5" y="863.5" width="104.7" height="4"/>
		</g>
		<g>
			<rect x="885.2" y="558.4" fill="#F49549" width="25.6" height="7.9"/>
			<path d="M912.8,568.3h-29.6v-11.9h29.6V568.3z M887.2,564.3h21.6v-3.9h-21.6V564.3z"/>
		</g>
		<g>
			<rect x="964" y="558.4" fill="#F49549" width="25.6" height="7.9"/>
			<path d="M991.6,568.3H962v-11.9h29.6V568.3z M966,564.3h21.6v-3.9H966V564.3z"/>
		</g>
		<g>
			<path fill="#F49549" d="M901.2,558.4v-19.7h14.1l22.1,13.1v6.6C937.4,558.4,899.5,558.4,901.2,558.4z"/>
			<path d="M939.4,560.4h-40.2v-23.7h16.6l23.6,14V560.4z M903.2,556.4h32.2v-3.5l-20.7-12.2h-11.5V556.4z"/>
		</g>
		<g>
			<path fill="#F49549" d="M973.6,558.4v-19.7h-14.1l-22.1,13.1v6.6C937.4,558.4,975.3,558.4,973.6,558.4z"/>
			<path d="M973.7,560.4h-38.3v-9.8l23.6-14h16.6v21.7h-1.9V560.4z M939.4,556.4h32.2v-15.7h-11.5l-20.7,12.2V556.4z"/>
		</g>
	</g>
	<g>
		<path d="M335.5,460.9c-1.2,0-2.2-1-2.2-2.2s1-2.2,2.2-2.2s2.2,1,2.2,2.2S336.7,460.9,335.5,460.9z M335.5,456.9
			c-1,0-1.8,0.8-1.8,1.8s0.8,1.8,1.8,1.8c1,0,1.8-0.8,1.8-1.8S336.4,456.9,335.5,456.9z"/>
	</g>
	<g>
		<path d="M151.1,409.9c-1.2,0-2.2-1-2.2-2.2s1-2.2,2.2-2.2s2.2,1,2.2,2.2S152.4,409.9,151.1,409.9z M151.1,405.9
			c-1,0-1.8,0.8-1.8,1.8s0.8,1.8,1.8,1.8c1,0,1.8-0.8,1.8-1.8S152.1,405.9,151.1,405.9z"/>
	</g>
	<g>
		<path d="M260.5,597.2c-1.2,0-2.2-1-2.2-2.2c0-1.2,1-2.2,2.2-2.2s2.2,1,2.2,2.2C262.7,596.2,261.7,597.2,260.5,597.2z M260.5,593.2
			c-1,0-1.8,0.8-1.8,1.8s0.8,1.8,1.8,1.8s1.8-0.8,1.8-1.8S261.4,593.2,260.5,593.2z"/>
	</g>
	<g>
		<path d="M1237.1,409.6c-1.2,0-2.2-1-2.2-2.2s1-2.2,2.2-2.2c1.2,0,2.2,1,2.2,2.2S1238.3,409.6,1237.1,409.6z M1237.1,405.6
			c-1,0-1.8,0.8-1.8,1.8s0.8,1.8,1.8,1.8s1.8-0.8,1.8-1.8S1238.1,405.6,1237.1,405.6z"/>
	</g>
	<g>
		<path d="M922.5,440.1c-1.2,0-2.2-1-2.2-2.2s1-2.2,2.2-2.2c1.2,0,2.2,1,2.2,2.2S923.7,440.1,922.5,440.1z M922.5,436.1
			c-1,0-1.8,0.8-1.8,1.8c0,1,0.8,1.8,1.8,1.8s1.8-0.8,1.8-1.8C924.3,436.8,923.5,436.1,922.5,436.1z"/>
	</g>
	<g>
		<rect x="575.8" y="435.8" width="68.6" height="4"/>
	</g>
	<g>
		<rect x="634.3" y="422.9" width="35.4" height="4"/>
	</g>
	<g>
		<g>
			<rect x="1020.8" y="841.4" fill="#38A0C4" width="326.8" height="9.2"/>
			<path d="M1349.5,852.7h-330.8v-13.2h330.8V852.7z M1022.8,848.7h322.8v-5.2h-322.8V848.7z"/>
		</g>
		<g>
			<g>
				<polygon fill="#38A0C4" points="1184,740.6 1152.5,878.9 1164.6,878.9 				"/>
				<path d="M1166.3,880.9H1150l32-140.7l3.9,0.7L1166.3,880.9z M1155,876.9h7.8l12.6-89.6L1155,876.9z"/>
			</g>
			<g>
				<polygon fill="#38A0C4" points="1184,740.6 1215.7,878.9 1203.7,878.9 				"/>
				<path d="M1218.2,880.9h-16.3l-19.9-140l3.9-0.7L1218.2,880.9z M1205.4,876.9h7.8l-20.6-89.6L1205.4,876.9z"/>
			</g>
		</g>
		<g>
			<rect x="1107.8" y="701.4" transform="matrix(0.5622 0.827 -0.827 0.5622 1140.104 -571.5197)" width="4" height="179.3"/>
		</g>
		<g>
			<rect x="1121.8" y="712.5" transform="matrix(0.6421 0.7666 -0.7666 0.6421 1008.5974 -578.3918)" width="4" height="157"/>
		</g>
		<g>
			<rect x="1135.3" y="722.3" transform="matrix(0.7339 0.6792 -0.6792 0.7339 839.8932 -562.0178)" width="4" height="137.4"/>
		</g>
		<g>
			<rect x="1147.4" y="729.9" transform="matrix(0.8252 0.5649 -0.5649 0.8252 647.8317 -511.0215)" width="4" height="122.2"/>
		</g>
		<g>
			<rect x="1159.7" y="735.9" transform="matrix(0.9146 0.4043 -0.4043 0.9146 419.0172 -402.1518)" width="4" height="110.2"/>
		</g>
		<g>
			<rect x="1168.4" y="789" transform="matrix(0.8268 0.5624 -0.5624 0.8268 662.7277 -570.6024)" width="179.2" height="4"/>
		</g>
		<g>
			<rect x="1165.6" y="789" transform="matrix(0.7666 0.6422 -0.6422 0.7666 798.3839 -614.2872)" width="157" height="4"/>
		</g>
		<g>
			<rect x="1161.9" y="789" transform="matrix(0.6791 0.734 -0.734 0.6791 975.5327 -649.4738)" width="137.3" height="4"/>
		</g>
		<g>
			<rect x="1157.4" y="789" transform="matrix(0.5647 0.8253 -0.8253 0.5647 1183.1431 -661.2545)" width="122.2" height="4"/>
		</g>
		<g>
			<rect x="1151.1" y="789" transform="matrix(0.404 0.9148 -0.9148 0.404 1442.552 -631.946)" width="110.2" height="4"/>
		</g>
		<g>
			<rect x="1182" y="733.4" width="4" height="9.7"/>
		</g>
	</g>
	<g>
		<rect x="63.8" y="876.9" width="1270.1" height="4"/>
	</g>
	<g>
		<g>
			<g>
				<rect x="1245.5" y="794.1" fill="#FCC29A" width="80.8" height="84.8"/>
			</g>
			<g>
				<rect x="1253.1" y="516.4" fill="#FCC29A" width="65.5" height="265"/>
			</g>
			<g>
				<path d="M1328.2,880.9h-84.8v-88.8h84.8V880.9z M1247.5,876.9h76.8v-80.8h-76.8V876.9z"/>
			</g>
			<g>
				<path fill="#E2E2E2" d="M1301.5,878.9h-31.2v-55.2c0-8.6,7-15.6,15.6-15.6h0c8.6,0,15.6,7,15.6,15.6V878.9z"/>
			</g>
			<g>
				<path d="M1303.5,880.9h-35.2v-57.2c0-9.7,7.9-17.6,17.6-17.6s17.6,7.9,17.6,17.6V880.9z M1272.2,876.9h27.2v-53.2
					c0-7.5-6.1-13.6-13.6-13.6c-7.5,0-13.6,6.1-13.6,13.6V876.9z"/>
			</g>
			<g>
				<rect x="1231.7" y="792.1" width="108.2" height="4"/>
			</g>
			<g>
				<rect x="1245.5" y="781.4" fill="#FCC29A" width="80.8" height="12.7"/>
			</g>
			<g>
				<path d="M1328.2,796.1h-84.8v-16.7h84.8V796.1z M1247.5,792.1h76.8v-8.7h-76.8V792.1z"/>
			</g>
			<g>
				<path d="M1320.6,783.4h-69.5v-269h69.5V783.4z M1255.1,779.4h61.5v-261h-61.5V779.4z"/>
			</g>
			<g>
				<g>
					<path fill="#E2E2E2" d="M1273.6,580.2c-8.2,10.5-8.8,16.8-8.8,16.8v33.3h8.8h8.8V597C1282.4,597,1281.9,590.7,1273.6,580.2z"/>
				</g>
				<g>
					<path fill="#E2E2E2" d="M1298.1,580.2c-8.2,10.5-8.8,16.8-8.8,16.8v33.3h8.8h8.8V597C1306.8,597,1306.3,590.7,1298.1,580.2z"/>
				</g>
			</g>
			<g>
				<g>
					<path fill="#E2E2E2" d="M1271.8,661.8c-6.1,7.7-6.5,12.4-6.5,12.4v24.6h6.5h6.5v-24.6C1278.3,674.3,1277.9,669.6,1271.8,661.8z
						"/>
				</g>
				<g>
					<path fill="#E2E2E2" d="M1299.9,661.8c-6.1,7.7-6.5,12.4-6.5,12.4v24.6h6.5h6.5v-24.6C1306.4,674.3,1306,669.6,1299.9,661.8z"
						/>
				</g>
			</g>
			<g>
				<g>
					<path fill="#E2E2E2" d="M1271.8,722.8c-6.1,7.7-6.5,12.4-6.5,12.4v24.6h6.5h6.5v-24.6C1278.3,735.3,1277.9,730.6,1271.8,722.8z
						"/>
				</g>
				<g>
					<path fill="#E2E2E2" d="M1299.9,722.8c-6.1,7.7-6.5,12.4-6.5,12.4v24.6h6.5h6.5v-24.6C1306.4,735.3,1306,730.6,1299.9,722.8z"
						/>
				</g>
			</g>
			<g>
				<g>
					<path d="M1284.4,632.3h-21.6l0-35.4c0-0.3,0.7-7,9.2-17.8l1.6-2l1.6,2c8.5,10.8,9.2,17.6,9.2,17.8l0,0.2V632.3z M1266.9,628.3
						h13.6v-31.1c-0.1-0.6-1-5.6-6.8-13.6c-5.8,8-6.7,13-6.8,13.6V628.3z"/>
				</g>
				<g>
					<path d="M1308.8,632.3h-21.6l0-35.4c0-0.3,0.7-7,9.2-17.8l1.6-2l1.6,2c8.5,10.8,9.2,17.6,9.2,17.8l0,0.2V632.3z M1291.3,628.3
						h13.6v-31.1c-0.1-0.6-1-5.6-6.8-13.6c-5.8,8-6.7,13-6.8,13.6V628.3z"/>
				</g>
			</g>
			<g>
				<g>
					<path d="M1280.3,700.9h-17l0-26.8c0-0.5,0.6-5.5,6.9-13.5l1.6-2l1.6,2c6.3,8,6.9,12.9,6.9,13.5l0,0.2V700.9z M1267.3,696.9h9
						v-22.5c-0.1-0.4-0.7-3.8-4.5-9.2c-3.8,5.3-4.4,8.7-4.5,9.2V696.9z"/>
				</g>
				<g>
					<path d="M1308.4,700.9h-17l0-26.8c0-0.5,0.6-5.5,6.9-13.5l1.6-2l1.6,2c6.3,8,6.9,12.9,6.9,13.5l0,0.2V700.9z M1295.4,696.9h9
						v-22.5c-0.1-0.4-0.7-3.8-4.5-9.2c-3.8,5.3-4.4,8.7-4.5,9.2V696.9z"/>
				</g>
			</g>
			<g>
				<g>
					<path d="M1280.3,761.9h-17l0-26.8c0-0.5,0.6-5.5,6.9-13.5l1.6-2l1.6,2c6.3,8,6.9,12.9,6.9,13.5l0,0.2V761.9z M1267.3,757.9h9
						v-22.5c-0.1-0.4-0.7-3.8-4.5-9.2c-3.8,5.3-4.4,8.7-4.5,9.2V757.9z"/>
				</g>
				<g>
					<path d="M1308.4,761.9h-17l0-26.8c0-0.5,0.6-5.5,6.9-13.5l1.6-2l1.6,2c6.3,8,6.9,12.9,6.9,13.5l0,0.2V761.9z M1295.4,757.9h9
						v-22.5c-0.1-0.4-0.7-3.8-4.5-9.2c-3.8,5.3-4.4,8.7-4.5,9.2V757.9z"/>
				</g>
			</g>
			<g>
				<rect x="1253.1" y="707.9" width="65.5" height="4"/>
			</g>
			<g>
				<rect x="1283.9" y="657.9" width="4" height="104.2"/>
			</g>
			<g>
				<rect x="1244.2" y="505.5" fill="#FCC29A" width="82.7" height="11"/>
			</g>
			<g>
				<path d="M1329,518.4h-86.7v-15h86.7V518.4z M1246.2,514.4h78.7v-7h-78.7V514.4z"/>
			</g>
			<g>
				<path d="M1308.8,573.4h-45.5v-10.6h45.5V573.4z M1267.3,569.4h37.5v-2.6h-37.5V569.4z"/>
			</g>
			<g>
				<rect x="1270.3" y="564.8" width="4" height="6.6"/>
			</g>
			<g>
				<rect x="1277.2" y="564.8" width="4" height="6.6"/>
			</g>
			<g>
				<rect x="1284.1" y="564.8" width="4" height="6.6"/>
			</g>
			<g>
				<rect x="1291" y="564.8" width="4" height="6.6"/>
			</g>
			<g>
				<rect x="1297.9" y="564.8" width="4" height="6.6"/>
			</g>
			<g>
				<rect x="1253.1" y="643.7" fill="#E2E2E2" width="65.5" height="5.3"/>
			</g>
			<g>
				<path d="M1320.6,650.9h-69.5v-9.3h69.5V650.9z M1255.1,646.9h61.5v-1.3h-61.5V646.9z"/>
			</g>
			<g>
				<path fill="#E2E2E2" d="M1295.4,452.1l-9.1-10.7l-9.1,10.7c-5.3,6.2-8.2,14.1-8.2,22.2v31.2h17.2h17.2v-31.2
					C1303.6,466.2,1300.7,458.3,1295.4,452.1z"/>
			</g>
			<g>
				<path fill="#FCC29A" d="M1303.6,453.4v20.9c0-8.1-2.9-16-8.2-22.2l-9.1-10.6l-9.1,10.6c-5.3,6.2-8.2,14.1-8.2,22.2v-20.9
					c0-8.1,2.9-16,8.2-22.2l9.1-10.7l9.1,10.7C1300.7,437.4,1303.6,445.3,1303.6,453.4z"/>
			</g>
			<g>
				<path fill="#E2E2E2" d="M1258,452.1l3.8-10.7l3.8,10.7c2.2,6.2,3.5,14.1,3.5,22.2v31.2h-7.3h-7.3v-31.2
					C1254.5,466.2,1255.7,458.3,1258,452.1z"/>
			</g>
			<g>
				<path fill="#E2E2E2" d="M1307,452.1l3.8-10.7l3.8,10.7c2.2,6.2,3.5,14.1,3.5,22.2v31.2h-7.3h-7.3v-31.2
					C1303.6,466.2,1304.8,458.3,1307,452.1z"/>
			</g>
			<g>
				<path d="M1305.6,507.5h-38.4v-33.2c0-8.6,3.1-17,8.6-23.5l10.6-12.5l10.6,12.5c5.6,6.6,8.6,14.9,8.6,23.5V507.5z M1271.1,503.5
					h30.4v-29.2c0-7.7-2.7-15.1-7.7-20.9l-7.5-8.9l-7.5,8.9c-5,5.8-7.7,13.3-7.7,20.9V503.5z"/>
			</g>
			<g>
				<path d="M1297.5,507.5h-22.2l-0.1-26.8c0-6.8,1.6-13.4,4.5-18.6c1.3-2.4,3.8-3.8,6.5-3.8c2.7,0,5.1,1.4,6.5,3.8l0.1,0.1
					c3,5.2,4.6,11.8,4.7,18.6L1297.5,507.5z M1279.3,503.5h14.2l-0.1-22.7c0-6.1-1.5-12-4.1-16.7l-0.1-0.1c-0.6-1.1-1.7-1.7-3-1.7
					c-1.3,0-2.4,0.7-3,1.8c-2.6,4.6-4,10.5-4,16.6L1279.3,503.5z"/>
			</g>
			<g>
				<path d="M1264.3,507.5h-11.7v-33.2c0-4.9,0.5-9.9,1.3-14.4l0.4-1.9l1.9,0.3c2,0.3,3.7,1.7,4.7,3.9l0.1,0.1
					c2.2,5.1,3.4,11.7,3.4,18.4L1264.3,507.5z M1256.5,503.5h3.7l-0.1-22.7c0-6.1-1.1-12-3-16.6c-0.4,3.3-0.7,6.7-0.7,10.2V503.5z"
					/>
			</g>
			<g>
				<path d="M1271.1,507.5h-18.6v-33.2c0-8.4,1.3-16.5,3.6-22.9l5.7-15.9l5.7,15.9c2.3,6.4,3.6,14.5,3.6,22.9V507.5z M1256.5,503.5
					h10.6v-29.2c0-7.9-1.2-15.6-3.3-21.5l-2-5.4l-2,5.4c-2.2,6-3.3,13.6-3.3,21.5V503.5z"/>
			</g>
			<g>
				<path d="M1264.3,507.5h-11.7v-33.2c0-4.9,0.5-9.9,1.3-14.4l0.4-1.9l1.9,0.3c2,0.3,3.7,1.7,4.7,3.9l0.1,0.1
					c2.2,5.1,3.4,11.7,3.4,18.4L1264.3,507.5z M1256.5,503.5h3.7l-0.1-22.7c0-6.1-1.1-12-3-16.6c-0.4,3.3-0.7,6.7-0.7,10.2V503.5z"
					/>
			</g>
			<g>
				<path d="M1320.2,507.5h-11.7l0.1-26.7c0-6.7,1.2-13.2,3.4-18.3v0l0.1-0.2c0.9-2.2,2.6-3.7,4.7-3.9l1.9-0.3l0.4,1.9
					c0.9,4.5,1.3,9.5,1.3,14.4V507.5z M1312.4,503.5h3.7v-29.2c0-3.4-0.2-6.9-0.7-10.2c-1.9,4.7-3,10.5-3,16.6L1312.4,503.5z"/>
			</g>
			<g>
				<path d="M1320.2,507.5h-18.6v-33.2c0-8.4,1.3-16.5,3.6-22.9l5.7-15.9l5.7,15.9c2.3,6.4,3.6,14.5,3.6,22.9V507.5z M1305.6,503.5
					h10.6v-29.2c0-7.9-1.2-15.6-3.3-21.5l-2-5.4l-2,5.4c-2.2,6-3.3,13.6-3.3,21.5V503.5z"/>
			</g>
			<g>
				<path fill="#FCC29A" d="M1310.9,441.4l-3.8,10.6c-2.2,6.2-3.5,14.1-3.5,22.2v-20.9c0-8.1-2.9-16-8.2-22.2l-9.1-10.7l-9.1,10.7
					c-5.3,6.2-8.2,14.1-8.2,22.2v20.9c0-8.1-1.2-16-3.5-22.2l-3.8-10.6l19.1-53c2.1-4.6,8.7-4.6,10.8,0L1310.9,441.4z"/>
			</g>
			<g>
				<path d="M1305.6,474.3h-4v-20.9c0-7.6-2.7-15.1-7.7-20.9l-7.5-8.9l-7.5,8.9c-5,5.8-7.7,13.3-7.7,20.9v20.9h-4
					c0-7.9-1.2-15.6-3.4-21.5l-4.1-11.3l19.4-53.9c1.3-2.9,4.1-4.6,7.2-4.6c3.1,0,5.9,1.8,7.2,4.6l0.1,0.2l19.4,53.7l-4.1,11.3
					C1306.7,458.7,1305.6,466.4,1305.6,474.3z M1263.9,441.4l3.3,9.1c0.6-7.6,3.6-14.8,8.5-20.7l10.6-12.4l10.6,12.4
					c5,5.8,7.9,13.1,8.5,20.7l3.3-9.1l-18.8-52.3c-0.7-1.4-2-2.2-3.6-2.2c-1.6,0-2.9,0.8-3.6,2.2L1263.9,441.4z"/>
			</g>
			<g>
				<rect x="1276.6" y="395.8" width="19.5" height="4"/>
			</g>
			<g>
				<g>
					<path fill="#E2E2E2" d="M1293.9,495c-0.5-3.9-3.8-6.8-7.8-6.8h0l0,0c-3.9,0-7.3,2.9-7.8,6.8l-4.2,32.9
						c-0.9,7.3,4.7,13.7,12,13.7l0,0h0c7.3,0,13-6.4,12-13.7L1293.9,495z"/>
				</g>
				<g>
					<path d="M1286.1,543.6c-4.1,0-7.9-1.8-10.6-4.8c-2.7-3.1-3.9-7.1-3.4-11.1l4.2-32.9c0.6-4.9,4.8-8.6,9.8-8.6
						c4.9,0,9.1,3.7,9.8,8.6l4.2,32.9c0.5,4-0.7,8.1-3.4,11.1S1290.2,543.6,1286.1,543.6z M1286.1,490.2c-2.9,0-5.4,2.2-5.8,5.1
						l-4.2,32.9c-0.4,2.9,0.5,5.8,2.4,8c1.9,2.2,4.7,3.4,7.6,3.4h0c2.9,0,5.7-1.3,7.6-3.4c1.9-2.2,2.8-5.1,2.4-8l-4.2-32.9
						C1291.5,492.4,1289,490.2,1286.1,490.2z"/>
				</g>
				<g>
					<path d="M1285.9,536.5c-4,0-7.2-3.2-7.2-7.2s3.2-7.2,7.2-7.2s7.2,3.2,7.2,7.2S1289.8,536.5,1285.9,536.5z M1285.9,526.1
						c-1.8,0-3.2,1.4-3.2,3.2c0,1.8,1.4,3.2,3.2,3.2c1.8,0,3.2-1.4,3.2-3.2C1289.1,527.5,1287.6,526.1,1285.9,526.1z"/>
				</g>
				<g>
					<path d="M1286.1,499.9c-1.2,0-2.2-1-2.2-2.2c0-1.2,1-2.2,2.2-2.2c1.2,0,2.2,1,2.2,2.2C1288.3,498.9,1287.3,499.9,1286.1,499.9z
						 M1286.1,495.9c-1,0-1.8,0.8-1.8,1.8s0.8,1.8,1.8,1.8s1.8-0.8,1.8-1.8S1287.1,495.9,1286.1,495.9z"/>
				</g>
			</g>
		</g>
		<g>
			<rect x="1284.3" y="367.4" width="4" height="17.5"/>
		</g>
		<g>
			<rect x="1259.8" y="423.9" width="4" height="17.5"/>
		</g>
		<g>
			<rect x="1308.4" y="421.1" width="4" height="17.5"/>
		</g>
	</g>
	<g>
		<g>
			<g>
				<g>
					<polygon fill="#F49549" points="503.4,808 418.5,808 376.4,808 291.5,808 280.1,862.4 376.4,862.4 418.5,862.4 514.8,862.4 
											"/>
					<path d="M514.8,864.4H280.1l-2-2.4l11.3-54.4l2-1.6h212l2,1.6l11.3,54.4L514.8,864.4z M282.6,860.4h229.7L501.8,810H293.1
						L282.6,860.4z"/>
				</g>
				<g>
					<polygon fill="#F49549" points="503.4,808 418.5,808 376.4,808 291.5,808 280.1,862.4 376.4,862.4 418.5,862.4 514.8,862.4 
											"/>
					<path d="M514.8,864.4H280.1l-2-2.4l11.3-54.4l2-1.6h212l2,1.6l11.3,54.4L514.8,864.4z M282.6,860.4h229.7L501.8,810H293.1
						L282.6,860.4z"/>
				</g>
				<g>
					<path fill="#F49549" d="M452,800c-7.9,0-54.5,0-54.5,0s-46.6,0-54.5,0c-16.9,0-21.3,7.4-21.3,7.4h75.8h75.8
						C473.3,807.4,468.8,800,452,800z"/>
					<path d="M476.8,809.4H318.1l1.8-3c0.2-0.3,5.3-8.4,23-8.4h109c17.8,0,22.8,8,23,8.4L476.8,809.4z M327.1,805.4h140.8
						c-3-1.7-7.9-3.4-15.9-3.4H343C335,802,330,803.7,327.1,805.4z"/>
				</g>
				<g>
					<polygon fill="#F49549" points="446.5,793.2 397.5,793.2 397.5,793.2 348.4,793.2 337.7,800 397.5,800 397.5,800 457.2,800 
											"/>
					<path d="M464.1,802H330.9l17-10.8h99.3L464.1,802z M344.6,798h105.7l-4.4-2.8h-97L344.6,798z"/>
				</g>
				<g>
					<polygon fill="#F49549" points="435.9,753.9 435.9,716.8 423.7,680.7 371.2,680.7 359,716.8 359,753.9 348.8,793.2 
						381.2,793.2 413.7,793.2 446.2,793.2 					"/>
					<path d="M448.8,795.2H346.2l10.8-41.6v-37.1l12.8-37.8h55.3l12.8,37.8v37.1L448.8,795.2z M351.3,791.2h92.2l-9.7-37.1v-37
						l-11.7-34.5h-49.6L361,717.2v37L351.3,791.2z"/>
				</g>
				<g>
					<line fill="#F49549" x1="359" y1="716.8" x2="435.9" y2="716.8"/>
					<rect x="359" y="714.8" width="76.9" height="4"/>
				</g>
				<g>
					<line fill="#F49549" x1="359" y1="753.9" x2="435.9" y2="753.9"/>
					<rect x="359" y="751.9" width="76.9" height="4"/>
				</g>
				<g>
					<line fill="#F49549" x1="357.1" y1="761.3" x2="437.8" y2="761.3"/>
					<rect x="357.1" y="759.3" width="80.8" height="4"/>
				</g>
				<g>
					<line fill="#F49549" x1="359" y1="724.1" x2="435.9" y2="724.1"/>
					<rect x="359" y="722.1" width="76.9" height="4"/>
				</g>
				<g>
					<rect x="380" y="605.6" width="35" height="4"/>
				</g>
				<g>
					<rect x="379" y="613.6" width="36.9" height="4"/>
				</g>
				<g>
					<rect x="378.1" y="621.6" width="38.8" height="4"/>
				</g>
				<g>
					<rect x="377.1" y="629.6" width="40.7" height="4"/>
				</g>
				<g>
					<rect x="376.1" y="637.7" width="42.7" height="4"/>
				</g>
				<g>
					<rect x="375.2" y="645.7" width="44.6" height="4"/>
				</g>
				<g>
					<rect x="374.2" y="653.7" width="46.5" height="4"/>
				</g>
				<g>
					<rect x="373.3" y="661.7" width="48.4" height="4"/>
				</g>
				<g>
					<rect x="372.3" y="669.8" width="50.4" height="4"/>
				</g>
				<g>
					<rect x="375.2" y="590.6" fill="#F49549" width="44.6" height="8.6"/>
					<path d="M421.8,601.2h-48.6v-12.6h48.6V601.2z M377.2,597.2h40.6v-4.6h-40.6V597.2z"/>
				</g>
				<g>
					<path fill="#5DC3B1" d="M409.8,573.4h-25.1c0,0-3.3-45,5.6-74.8h13.9C413.1,528.5,409.8,573.4,409.8,573.4z"/>
					<path d="M411.6,575.4h-28.8l-0.1-1.9c0-0.1-0.8-11.5-0.5-26.4c0.3-13.8,1.6-33.5,6.2-49.1l0.4-1.4h16.9l0.4,1.4
						c4.7,15.6,6,35.3,6.2,49.1c0.3,14.9-0.5,26.3-0.5,26.4L411.6,575.4z M386.5,571.4h21.4c0.5-8.6,2-45.1-5.2-70.8h-10.9
						C384.5,526.4,386.1,562.9,386.5,571.4z"/>
				</g>
				<g>
					<path fill="#F49549" d="M409.8,573.4h-25.1c0,0-3.3-45,5.6-74.8h13.9C413.1,528.5,409.8,573.4,409.8,573.4z"/>
					<path d="M411.6,575.4h-28.8l-0.1-1.9c0-0.1-0.8-11.5-0.5-26.4c0.3-13.8,1.6-33.5,6.2-49.1l0.4-1.4h16.9l0.4,1.4
						c4.7,15.6,6,35.3,6.2,49.1c0.3,14.9-0.5,26.3-0.5,26.4L411.6,575.4z M386.5,571.4h21.4c0.5-8.6,2-45.1-5.2-70.8h-10.9
						C384.5,526.4,386.1,562.9,386.5,571.4z"/>
				</g>
				<g>
					<rect x="384.7" y="573.4" fill="#F49549" width="25.2" height="17.2"/>
					<path d="M411.8,592.6h-29.2v-21.2h29.2V592.6z M386.7,588.6h21.2v-13.2h-21.2V588.6z"/>
				</g>
				<g>
					<rect x="390.3" y="476.9" fill="#E2E2E2" width="13.9" height="21.8"/>
				</g>
				<g>
					<path d="M406.2,500.7h-17.9v-25.8h17.9V500.7z M392.3,496.7h9.9v-17.8h-9.9V496.7z"/>
				</g>
				<g>
					<rect x="390.3" y="482" width="13.9" height="4"/>
				</g>
				<g>
					<rect x="390.3" y="489.3" width="13.9" height="4"/>
				</g>
				<g>
					<path fill="#F49549" d="M390.3,476.9c0,0-0.4-9.9,6.9-9.9c7.5,0,6.9,9.9,6.9,9.9H390.3z"/>
					<path d="M406.1,478.9h-17.7l-0.1-1.9c0-0.6-0.2-6.2,3-9.5c1.5-1.6,3.5-2.4,5.9-2.4c2.4,0,4.5,0.8,6,2.4c3.2,3.4,3,8.9,3,9.5
						L406.1,478.9z M392.4,474.9h9.7c-0.2-1.5-0.7-3.5-1.8-4.7c-0.8-0.8-1.8-1.2-3.1-1.2c-1.3,0-2.2,0.4-3,1.2
						C393.1,471.4,392.6,473.3,392.4,474.9z"/>
				</g>
				<g>
					<rect x="395.2" y="432.6" width="4" height="34.4"/>
				</g>
				<g>
					<line fill="#F49549" x1="287.6" y1="826.7" x2="507.4" y2="826.7"/>
					<rect x="287.6" y="824.7" width="219.8" height="4"/>
				</g>
				<g>
					<line fill="#F49549" x1="287.6" y1="833.3" x2="507.4" y2="833.3"/>
					<rect x="287.6" y="831.3" width="219.8" height="4"/>
				</g>
			</g>
			<g>
				<line fill="#F49549" x1="381.2" y1="476.9" x2="413.2" y2="476.9"/>
				<rect x="381.2" y="474.9" width="32" height="4"/>
			</g>
		</g>
		<g>
			<rect x="271.9" y="868.9" width="249" height="4"/>
		</g>
	</g>
	<g>
		<g>
			<g>
				<rect x="472.2" y="567.9" fill="#68C4A2" width="81.1" height="311"/>
				<path d="M555.2,880.9h-85.1v-315h85.1V880.9z M474.2,876.9h77.1v-307h-77.1V876.9z"/>
			</g>
			<g>
				<polygon fill="#68C4A2" points="553.2,567.9 472.2,567.9 488.5,547 493,547 493,538.8 532.3,538.8 532.3,547 536.9,547 				"/>
				<path d="M553.2,569.9h-81.1l-1.6-3.2l16.3-20.9l1.6-0.8h2.6v-6.2l2-2h39.3l2,2v6.2h2.6l1.6,0.8l16.3,20.9L553.2,569.9z
					 M476.3,565.9h72.9L535.9,549h-3.6l-2-2v-6.2H495v6.2l-2,2h-3.6L476.3,565.9z"/>
			</g>
			<g>
				<polygon fill="#68C4A2" points="532.3,538.8 493,538.8 500.9,529.7 503.1,529.7 503.1,524.7 522.2,524.7 522.2,529.7 
					524.4,529.7 				"/>
				<path d="M532.3,540.8H493l-1.5-3.3l7.9-9.1l1.5-0.7h0.2v-3l2-2h19.1l2,2v3h0.2l1.5,0.7l7.9,9.1L532.3,540.8z M497.4,536.8h30.5
					l-4.4-5.1h-1.3l-2-2v-3h-15.1v3l-2,2h-1.3L497.4,536.8z"/>
			</g>
			<g>
				<g>
					<g>
						<rect x="494.9" y="586.2" fill="#E2E2E2" width="11.8" height="11.8"/>
					</g>
					<g>
						<path d="M508.7,600h-15.8v-15.8h15.8V600z M496.9,596h7.8v-7.8h-7.8V596z"/>
					</g>
				</g>
				<g>
					<g>
						<rect x="518.7" y="586.2" fill="#E2E2E2" width="11.8" height="11.8"/>
					</g>
					<g>
						<path d="M532.5,600h-15.8v-15.8h15.8V600z M520.7,596h7.8v-7.8h-7.8V596z"/>
					</g>
				</g>
			</g>
			<g>
				<g>
					<g>
						<rect x="494.9" y="613.7" fill="#E2E2E2" width="11.8" height="11.8"/>
					</g>
					<g>
						<path d="M508.7,627.5h-15.8v-15.8h15.8V627.5z M496.9,623.5h7.8v-7.8h-7.8V623.5z"/>
					</g>
				</g>
				<g>
					<g>
						<rect x="518.7" y="613.7" fill="#E2E2E2" width="11.8" height="11.8"/>
					</g>
					<g>
						<path d="M532.5,627.5h-15.8v-15.8h15.8V627.5z M520.7,623.5h7.8v-7.8h-7.8V623.5z"/>
					</g>
				</g>
			</g>
			<g>
				<g>
					<g>
						<rect x="494.9" y="641.2" fill="#E2E2E2" width="11.8" height="11.8"/>
					</g>
					<g>
						<path d="M508.7,655h-15.8v-15.8h15.8V655z M496.9,651h7.8v-7.8h-7.8V651z"/>
					</g>
				</g>
				<g>
					<g>
						<rect x="518.7" y="641.2" fill="#E2E2E2" width="11.8" height="11.8"/>
					</g>
					<g>
						<path d="M532.5,655h-15.8v-15.8h15.8V655z M520.7,651h7.8v-7.8h-7.8V651z"/>
					</g>
				</g>
			</g>
			<g>
				<g>
					<g>
						<rect x="494.9" y="668.8" fill="#E2E2E2" width="11.8" height="11.8"/>
					</g>
					<g>
						<path d="M508.7,682.6h-15.8v-15.8h15.8V682.6z M496.9,678.6h7.8v-7.8h-7.8V678.6z"/>
					</g>
				</g>
				<g>
					<g>
						<rect x="518.7" y="668.8" fill="#E2E2E2" width="11.8" height="11.8"/>
					</g>
					<g>
						<path d="M532.5,682.6h-15.8v-15.8h15.8V682.6z M520.7,678.6h7.8v-7.8h-7.8V678.6z"/>
					</g>
				</g>
			</g>
			<g>
				<g>
					<g>
						<rect x="494.9" y="696.3" fill="#E2E2E2" width="11.8" height="11.8"/>
					</g>
					<g>
						<path d="M508.7,710.1h-15.8v-15.8h15.8V710.1z M496.9,706.1h7.8v-7.8h-7.8V706.1z"/>
					</g>
				</g>
				<g>
					<g>
						<rect x="518.7" y="696.3" fill="#E2E2E2" width="11.8" height="11.8"/>
					</g>
					<g>
						<path d="M532.5,710.1h-15.8v-15.8h15.8V710.1z M520.7,706.1h7.8v-7.8h-7.8V706.1z"/>
					</g>
				</g>
			</g>
			<g>
				<g>
					<g>
						<rect x="494.9" y="723.8" fill="#E2E2E2" width="11.8" height="11.8"/>
					</g>
					<g>
						<path d="M508.7,737.6h-15.8v-15.8h15.8V737.6z M496.9,733.6h7.8v-7.8h-7.8V733.6z"/>
					</g>
				</g>
				<g>
					<g>
						<rect x="518.7" y="723.8" fill="#E2E2E2" width="11.8" height="11.8"/>
					</g>
					<g>
						<path d="M532.5,737.6h-15.8v-15.8h15.8V737.6z M520.7,733.6h7.8v-7.8h-7.8V733.6z"/>
					</g>
				</g>
			</g>
			<g>
				<g>
					<g>
						<rect x="494.9" y="751.3" fill="#E2E2E2" width="11.8" height="11.8"/>
					</g>
					<g>
						<path d="M508.7,765.1h-15.8v-15.8h15.8V765.1z M496.9,761.1h7.8v-7.8h-7.8V761.1z"/>
					</g>
				</g>
				<g>
					<g>
						<rect x="518.7" y="751.3" fill="#E2E2E2" width="11.8" height="11.8"/>
					</g>
					<g>
						<path d="M532.5,765.1h-15.8v-15.8h15.8V765.1z M520.7,761.1h7.8v-7.8h-7.8V761.1z"/>
					</g>
				</g>
			</g>
			<g>
				<rect x="480.2" y="580" width="4" height="280.4"/>
			</g>
			<g>
				<rect x="541.1" y="580" width="4" height="280.4"/>
			</g>
			<g>
				<rect x="464.6" y="773.5" width="96.4" height="4"/>
			</g>
			<g>
				<g>
					<g>
						<rect x="490.1" y="784.7" fill="#E2E2E2" width="18.9" height="8.4"/>
					</g>
					<g>
						<path d="M511,795.1h-22.9v-12.4H511V795.1z M492.1,791.1H507v-4.4h-14.9V791.1z"/>
					</g>
				</g>
				<g>
					<g>
						<rect x="516.7" y="784.7" fill="#E2E2E2" width="18.9" height="8.4"/>
					</g>
					<g>
						<path d="M537.6,795.1h-22.9v-12.4h22.9V795.1z M518.7,791.1h14.9v-4.4h-14.9V791.1z"/>
					</g>
				</g>
			</g>
			<g>
				<g>
					<g>
						<rect x="490.1" y="804.1" fill="#E2E2E2" width="18.9" height="8.4"/>
					</g>
					<g>
						<path d="M511,814.6h-22.9v-12.4H511V814.6z M492.1,810.6H507v-4.4h-14.9V810.6z"/>
					</g>
				</g>
				<g>
					<g>
						<rect x="516.7" y="804.1" fill="#E2E2E2" width="18.9" height="8.4"/>
					</g>
					<g>
						<path d="M537.6,814.6h-22.9v-12.4h22.9V814.6z M518.7,810.6h14.9v-4.4h-14.9V810.6z"/>
					</g>
				</g>
			</g>
			<g>
				<g>
					<g>
						<rect x="490.1" y="823.6" fill="#E2E2E2" width="18.9" height="8.4"/>
					</g>
					<g>
						<path d="M511,834h-22.9v-12.4H511V834z M492.1,830H507v-4.4h-14.9V830z"/>
					</g>
				</g>
				<g>
					<g>
						<rect x="516.7" y="823.6" fill="#E2E2E2" width="18.9" height="8.4"/>
					</g>
					<g>
						<path d="M537.6,834h-22.9v-12.4h22.9V834z M518.7,830h14.9v-4.4h-14.9V830z"/>
					</g>
				</g>
			</g>
			<g>
				<g>
					<g>
						<rect x="490.1" y="843" fill="#E2E2E2" width="18.9" height="8.4"/>
					</g>
					<g>
						<path d="M511,853.5h-22.9V841H511V853.5z M492.1,849.5H507V845h-14.9V849.5z"/>
					</g>
				</g>
				<g>
					<g>
						<rect x="516.7" y="843" fill="#E2E2E2" width="18.9" height="8.4"/>
					</g>
					<g>
						<path d="M537.6,853.5h-22.9V841h22.9V853.5z M518.7,849.5h14.9V845h-14.9V849.5z"/>
					</g>
				</g>
			</g>
			<g>
				<line fill="#68C4A2" x1="488" y1="538.8" x2="537.3" y2="538.8"/>
				<rect x="488" y="536.8" width="49.2" height="4"/>
			</g>
			<g>
				<line fill="#68C4A2" x1="496.5" y1="529.7" x2="528.8" y2="529.7"/>
				<rect x="496.5" y="527.7" width="32.3" height="4"/>
			</g>
			<g>
				<line fill="#68C4A2" x1="482.3" y1="547" x2="542.7" y2="547"/>
				<rect x="482.3" y="545" width="60.4" height="4"/>
			</g>
			<g>
				<path fill="#68C4A2" d="M503.1,524.7l6.3-9.8c1.5-2.4,5-2.4,6.5,0l6.3,9.8H503.1z"/>
				<path d="M522.2,526.7h-19.1l-1.7-3.1l6.3-9.8c1.1-1.7,2.9-2.7,4.9-2.7c2,0,3.8,1,4.9,2.7l6.3,9.8L522.2,526.7z M506.8,522.7
					h11.8l-4.3-6.8c-0.5-0.8-1.2-0.9-1.6-0.9c-0.3,0-1.1,0.1-1.5,0.8L506.8,522.7z"/>
			</g>
		</g>
		<g>
			<g>
				<rect x="585.2" y="567.9" fill="#68C4A2" width="81.1" height="311"/>
				<path d="M668.2,880.9h-85.1v-315h85.1V880.9z M587.2,876.9h77.1v-307h-77.1V876.9z"/>
			</g>
			<g>
				<polygon fill="#68C4A2" points="666.2,567.9 585.2,567.9 601.5,547 606,547 606,538.8 645.4,538.8 645.4,547 649.9,547 				"/>
				<path d="M666.2,569.9h-81.1l-1.6-3.2l16.3-20.9l1.6-0.8h2.6v-6.2l2-2h39.3l2,2v6.2h2.6l1.6,0.8l16.3,20.9L666.2,569.9z
					 M589.3,565.9h72.9L648.9,549h-3.6l-2-2v-6.2H608v6.2l-2,2h-3.6L589.3,565.9z"/>
			</g>
			<g>
				<polygon fill="#68C4A2" points="645.3,538.8 606,538.8 613.9,529.7 616.1,529.7 616.1,524.7 635.2,524.7 635.2,529.7 
					637.4,529.7 				"/>
				<path d="M645.3,540.8H606l-1.5-3.3l7.9-9.1l1.5-0.7h0.2v-3l2-2h19.1l2,2v3h0.2l1.5,0.7l7.9,9.1L645.3,540.8z M610.4,536.8h30.5
					l-4.4-5.1h-1.3l-2-2v-3h-15.1v3l-2,2h-1.3L610.4,536.8z"/>
			</g>
			<g>
				<g>
					<g>
						<rect x="607.9" y="586.2" fill="#E2E2E2" width="11.8" height="11.8"/>
					</g>
					<g>
						<path d="M621.7,600h-15.8v-15.8h15.8V600z M609.9,596h7.8v-7.8h-7.8V596z"/>
					</g>
				</g>
				<g>
					<g>
						<rect x="631.7" y="586.2" fill="#E2E2E2" width="11.8" height="11.8"/>
					</g>
					<g>
						<path d="M645.5,600h-15.8v-15.8h15.8V600z M633.7,596h7.8v-7.8h-7.8V596z"/>
					</g>
				</g>
			</g>
			<g>
				<g>
					<g>
						<rect x="607.9" y="613.7" fill="#E2E2E2" width="11.8" height="11.8"/>
					</g>
					<g>
						<path d="M621.7,627.5h-15.8v-15.8h15.8V627.5z M609.9,623.5h7.8v-7.8h-7.8V623.5z"/>
					</g>
				</g>
				<g>
					<g>
						<rect x="631.7" y="613.7" fill="#E2E2E2" width="11.8" height="11.8"/>
					</g>
					<g>
						<path d="M645.5,627.5h-15.8v-15.8h15.8V627.5z M633.7,623.5h7.8v-7.8h-7.8V623.5z"/>
					</g>
				</g>
			</g>
			<g>
				<g>
					<g>
						<rect x="607.9" y="641.2" fill="#E2E2E2" width="11.8" height="11.8"/>
					</g>
					<g>
						<path d="M621.7,655h-15.8v-15.8h15.8V655z M609.9,651h7.8v-7.8h-7.8V651z"/>
					</g>
				</g>
				<g>
					<g>
						<rect x="631.7" y="641.2" fill="#E2E2E2" width="11.8" height="11.8"/>
					</g>
					<g>
						<path d="M645.5,655h-15.8v-15.8h15.8V655z M633.7,651h7.8v-7.8h-7.8V651z"/>
					</g>
				</g>
			</g>
			<g>
				<g>
					<g>
						<rect x="607.9" y="668.8" fill="#E2E2E2" width="11.8" height="11.8"/>
					</g>
					<g>
						<path d="M621.7,682.6h-15.8v-15.8h15.8V682.6z M609.9,678.6h7.8v-7.8h-7.8V678.6z"/>
					</g>
				</g>
				<g>
					<g>
						<rect x="631.7" y="668.8" fill="#E2E2E2" width="11.8" height="11.8"/>
					</g>
					<g>
						<path d="M645.5,682.6h-15.8v-15.8h15.8V682.6z M633.7,678.6h7.8v-7.8h-7.8V678.6z"/>
					</g>
				</g>
			</g>
			<g>
				<g>
					<g>
						<rect x="607.9" y="696.3" fill="#E2E2E2" width="11.8" height="11.8"/>
					</g>
					<g>
						<path d="M621.7,710.1h-15.8v-15.8h15.8V710.1z M609.9,706.1h7.8v-7.8h-7.8V706.1z"/>
					</g>
				</g>
				<g>
					<g>
						<rect x="631.7" y="696.3" fill="#E2E2E2" width="11.8" height="11.8"/>
					</g>
					<g>
						<path d="M645.5,710.1h-15.8v-15.8h15.8V710.1z M633.7,706.1h7.8v-7.8h-7.8V706.1z"/>
					</g>
				</g>
			</g>
			<g>
				<g>
					<g>
						<rect x="607.9" y="723.8" fill="#E2E2E2" width="11.8" height="11.8"/>
					</g>
					<g>
						<path d="M621.7,737.6h-15.8v-15.8h15.8V737.6z M609.9,733.6h7.8v-7.8h-7.8V733.6z"/>
					</g>
				</g>
				<g>
					<g>
						<rect x="631.7" y="723.8" fill="#E2E2E2" width="11.8" height="11.8"/>
					</g>
					<g>
						<path d="M645.5,737.6h-15.8v-15.8h15.8V737.6z M633.7,733.6h7.8v-7.8h-7.8V733.6z"/>
					</g>
				</g>
			</g>
			<g>
				<g>
					<g>
						<rect x="607.9" y="751.3" fill="#E2E2E2" width="11.8" height="11.8"/>
					</g>
					<g>
						<path d="M621.7,765.1h-15.8v-15.8h15.8V765.1z M609.9,761.1h7.8v-7.8h-7.8V761.1z"/>
					</g>
				</g>
				<g>
					<g>
						<rect x="631.7" y="751.3" fill="#E2E2E2" width="11.8" height="11.8"/>
					</g>
					<g>
						<path d="M645.5,765.1h-15.8v-15.8h15.8V765.1z M633.7,761.1h7.8v-7.8h-7.8V761.1z"/>
					</g>
				</g>
			</g>
			<g>
				<rect x="593.2" y="580" width="4" height="280.4"/>
			</g>
			<g>
				<rect x="654.1" y="580" width="4" height="280.4"/>
			</g>
			<g>
				<rect x="577.6" y="773.5" width="96.4" height="4"/>
			</g>
			<g>
				<g>
					<g>
						<rect x="603.2" y="784.7" fill="#E2E2E2" width="18.9" height="8.4"/>
					</g>
					<g>
						<path d="M624.1,795.1h-22.9v-12.4h22.9V795.1z M605.2,791.1h14.9v-4.4h-14.9V791.1z"/>
					</g>
				</g>
				<g>
					<g>
						<rect x="629.7" y="784.7" fill="#E2E2E2" width="18.9" height="8.4"/>
					</g>
					<g>
						<path d="M650.6,795.1h-22.9v-12.4h22.9V795.1z M631.7,791.1h14.9v-4.4h-14.9V791.1z"/>
					</g>
				</g>
			</g>
			<g>
				<g>
					<g>
						<rect x="603.2" y="804.1" fill="#E2E2E2" width="18.9" height="8.4"/>
					</g>
					<g>
						<path d="M624.1,814.6h-22.9v-12.4h22.9V814.6z M605.2,810.6h14.9v-4.4h-14.9V810.6z"/>
					</g>
				</g>
				<g>
					<g>
						<rect x="629.7" y="804.1" fill="#E2E2E2" width="18.9" height="8.4"/>
					</g>
					<g>
						<path d="M650.6,814.6h-22.9v-12.4h22.9V814.6z M631.7,810.6h14.9v-4.4h-14.9V810.6z"/>
					</g>
				</g>
			</g>
			<g>
				<g>
					<g>
						<rect x="603.2" y="823.6" fill="#E2E2E2" width="18.9" height="8.4"/>
					</g>
					<g>
						<path d="M624.1,834h-22.9v-12.4h22.9V834z M605.2,830h14.9v-4.4h-14.9V830z"/>
					</g>
				</g>
				<g>
					<g>
						<rect x="629.7" y="823.6" fill="#E2E2E2" width="18.9" height="8.4"/>
					</g>
					<g>
						<path d="M650.6,834h-22.9v-12.4h22.9V834z M631.7,830h14.9v-4.4h-14.9V830z"/>
					</g>
				</g>
			</g>
			<g>
				<g>
					<g>
						<rect x="603.2" y="843" fill="#E2E2E2" width="18.9" height="8.4"/>
					</g>
					<g>
						<path d="M624.1,853.5h-22.9V841h22.9V853.5z M605.2,849.5h14.9V845h-14.9V849.5z"/>
					</g>
				</g>
				<g>
					<g>
						<rect x="629.7" y="843" fill="#E2E2E2" width="18.9" height="8.4"/>
					</g>
					<g>
						<path d="M650.6,853.5h-22.9V841h22.9V853.5z M631.7,849.5h14.9V845h-14.9V849.5z"/>
					</g>
				</g>
			</g>
			<g>
				<line fill="#68C4A2" x1="601" y1="538.8" x2="650.3" y2="538.8"/>
				<rect x="601" y="536.8" width="49.2" height="4"/>
			</g>
			<g>
				<line fill="#68C4A2" x1="609.5" y1="529.7" x2="641.8" y2="529.7"/>
				<rect x="609.5" y="527.7" width="32.3" height="4"/>
			</g>
			<g>
				<line fill="#68C4A2" x1="595.3" y1="547" x2="655.7" y2="547"/>
				<rect x="595.3" y="545" width="60.4" height="4"/>
			</g>
			<g>
				<path fill="#68C4A2" d="M616.1,524.7l6.3-9.8c1.5-2.4,5-2.4,6.5,0l6.3,9.8H616.1z"/>
				<path d="M635.2,526.7h-19.1l-1.7-3.1l6.3-9.8c1.1-1.7,2.9-2.7,4.9-2.7c2,0,3.8,1,4.9,2.7l6.3,9.8L635.2,526.7z M619.8,522.7
					h11.8l-4.3-6.8c-0.5-0.8-1.2-0.9-1.6-0.9c-0.3,0-1.1,0.1-1.5,0.8L619.8,522.7z"/>
			</g>
		</g>
	</g>
	<g>
		<g>
			<rect x="767.5" y="775" fill="#FCC29A" width="68.9" height="39"/>
		</g>
		<g>
			<path d="M838.4,816h-72.9v-43h72.9V816z M769.5,812h64.9v-35h-64.9V812z"/>
		</g>
		<g>
			<rect x="746.1" y="814" fill="#FCC29A" width="111.3" height="64.9"/>
		</g>
		<g>
			<rect x="702.2" y="814" fill="#FCC29A" width="43.9" height="64.9"/>
		</g>
		<g>
			<rect x="857.5" y="814" fill="#FCC29A" width="43.9" height="64.9"/>
		</g>
		<g>
			<path d="M859.5,880.9H744.1V812h115.3V880.9z M748.1,876.9h107.3V816H748.1V876.9z"/>
		</g>
		<g>
			<polygon fill="#FCC29A" points="763.5,868.5 763.5,868.5 763.5,821.9 770.2,814 763.2,814 753.2,814 746.1,814 752.9,821.9 
				752.9,824.4 752.9,824.4 752.9,870.9 746.1,878.9 753.2,878.9 763.2,878.9 770.2,878.9 763.5,870.9 			"/>
		</g>
		<g>
			<polygon fill="#FCC29A" points="850.7,868.5 850.7,868.5 850.7,821.9 857.5,814 850.4,814 840.4,814 833.4,814 840.2,821.9 
				840.2,824.4 840.2,824.4 840.2,870.9 833.4,878.9 840.4,878.9 850.4,878.9 857.5,878.9 850.7,870.9 			"/>
		</g>
		<g>
			<path d="M774.6,880.9h-32.8l9.1-10.7v-47.5l-9.1-10.7h32.8l-9.1,10.7v47.5L774.6,880.9z M750.5,876.9h15.4l-4.4-5.2v-50.5
				l4.4-5.2h-15.4l4.4,5.2v50.5L750.5,876.9z"/>
		</g>
		<g>
			<path d="M861.8,880.9H829l9.1-10.7v-47.5L829,812h32.8l-9.1,10.7v47.5L861.8,880.9z M837.7,876.9h15.4l-4.4-5.2v-50.5l4.4-5.2
				h-15.4l4.4,5.2v50.5L837.7,876.9z"/>
		</g>
		<g>
			<rect x="746.1" y="801.4" fill="#FCC29A" width="24.1" height="12.6"/>
		</g>
		<g>
			<rect x="833.4" y="801.4" fill="#FCC29A" width="24.1" height="12.6"/>
		</g>
		<g>
			<path d="M772.2,816h-28.1v-16.6h28.1V816z M748.1,812h20.1v-8.6h-20.1V812z"/>
		</g>
		<g>
			<path d="M859.5,816h-28.1v-16.6h28.1V816z M835.4,812h20.1v-8.6h-20.1V812z"/>
		</g>
		<g>
			<rect x="689.7" y="812" width="66.5" height="4"/>
		</g>
		<g>
			<rect x="857.5" y="812" width="56.5" height="4"/>
		</g>
		<g>
			<rect x="740.8" y="799.4" width="35.2" height="4"/>
		</g>
		<g>
			<rect x="827.8" y="799.4" width="35.2" height="4"/>
		</g>
		<g>
			<rect x="742.8" y="773" width="31.2" height="4"/>
		</g>
		<g>
			<rect x="829.8" y="773" width="31.2" height="4"/>
		</g>
		<g>
			<polygon fill="#FCC29A" points="767.2,775 749.1,775 746.1,801.4 770.2,801.4 			"/>
		</g>
		<g>
			<polygon fill="#FCC29A" points="854.5,775 836.4,775 833.4,801.4 857.5,801.4 			"/>
		</g>
		<g>
			<path d="M772.5,803.4h-28.6l3.5-30.4H769L772.5,803.4z M748.4,799.4H768l-2.5-22.4h-14.5L748.4,799.4z"/>
		</g>
		<g>
			<path d="M859.7,803.4h-28.6l3.5-30.4h21.7L859.7,803.4z M835.6,799.4h19.6l-2.5-22.4h-14.5L835.6,799.4z"/>
		</g>
		<g>
			<rect x="836.4" y="759.6" fill="#FCC29A" width="18.1" height="15.4"/>
		</g>
		<g>
			<rect x="749.4" y="759.6" fill="#FCC29A" width="18.1" height="15.4"/>
		</g>
		<g>
			<path d="M856.5,777h-22.1v-19.4h22.1V777z M838.4,773h14.1v-11.4h-14.1V773z"/>
		</g>
		<g>
			<path d="M769.5,777h-22.1v-19.4h22.1V777z M751.4,773h14.1v-11.4h-14.1V773z"/>
		</g>
		<g>
			<rect x="742.8" y="750.5" width="31.2" height="4"/>
		</g>
		<g>
			<rect x="829.8" y="750.5" width="31.2" height="4"/>
		</g>
		<g>
			<rect x="834.8" y="743.6" width="21.2" height="4"/>
		</g>
		<g>
			<rect x="839.8" y="736.8" width="11.2" height="4"/>
		</g>
		<g>
			<rect x="747.6" y="743.6" width="21.2" height="4"/>
		</g>
		<g>
			<rect x="752.6" y="736.8" width="11.2" height="4"/>
		</g>
		<g>
			<rect x="843.4" y="730.5" width="4" height="8.3"/>
		</g>
		<g>
			<rect x="756.2" y="730.5" width="4" height="8.3"/>
		</g>
		<g>
			<g>
				<rect x="752.3" y="801.4" width="4" height="4.5"/>
			</g>
			<g>
				<rect x="760.1" y="801.4" width="4" height="4.5"/>
			</g>
		</g>
		<g>
			<g>
				<rect x="839.5" y="801.4" width="4" height="4.5"/>
			</g>
			<g>
				<rect x="847.4" y="801.4" width="4" height="4.5"/>
			</g>
		</g>
		<g>
			<path d="M891,880.9h-23.6v-47.4H891V880.9z M871.4,876.9H887v-39.4h-15.6V876.9z"/>
		</g>
		<g>
			<path fill="#E2E2E2" d="M878,836.9c-7.2,9.4-8.6,20.2-8.6,20.2v21.7h9.8h9.8v-21.7c0,0-1.4-10.9-8.6-20.2
				C879.8,836.2,878.6,836.2,878,836.9z"/>
		</g>
		<g>
			<path d="M891,880.9h-23.6l0-23.9c0.1-0.5,1.5-11.5,9-21.2c0.7-0.9,1.7-1.4,2.8-1.4s2.1,0.5,2.7,1.4c7.5,9.7,9,20.7,9,21.2l0,0.3
				V880.9z M871.4,876.9H887v-19.5c-0.2-1.1-1.7-10.4-7.8-18.6c-6.1,8.2-7.6,17.5-7.8,18.6V876.9z"/>
		</g>
		<g>
			<path d="M891,837.5h-23.6v-4.2c0-6.5,5.3-11.8,11.8-11.8c6.5,0,11.8,5.3,11.8,11.8V837.5z M871.4,833.5H887v-0.2
				c0-4.3-3.5-7.8-7.8-7.8s-7.8,3.5-7.8,7.8V833.5z"/>
		</g>
		<g>
			<path d="M735.8,880.9h-23.6v-47.4h23.6V880.9z M716.3,876.9h15.6v-39.4h-15.6V876.9z"/>
		</g>
		<g>
			<path fill="#E2E2E2" d="M722.9,836.9c-7.2,9.4-8.6,20.2-8.6,20.2v21.7h9.8h9.8v-21.7c0,0-1.4-10.9-8.6-20.2
				C724.6,836.2,723.5,836.2,722.9,836.9z"/>
		</g>
		<g>
			<path d="M735.8,880.9h-23.6l0-23.9c0.1-0.5,1.5-11.5,9-21.2c0.7-0.9,1.7-1.4,2.8-1.4c1.1,0,2.1,0.5,2.7,1.4
				c7.5,9.7,9,20.7,9,21.2l0,0.3V880.9z M716.3,876.9h15.6v-19.5c-0.2-1.1-1.7-10.4-7.8-18.6c-6.1,8.2-7.6,17.5-7.8,18.6V876.9z"/>
		</g>
		<g>
			<path d="M735.8,837.5h-23.6v-4.2c0-6.5,5.3-11.8,11.8-11.8c6.5,0,11.8,5.3,11.8,11.8V837.5z M716.3,833.5h15.6v-0.2
				c0-4.3-3.5-7.8-7.8-7.8s-7.8,3.5-7.8,7.8V833.5z"/>
		</g>
		<g>
			<rect x="784.5" y="786.8" fill="#E2E2E2" width="35.4" height="15.4"/>
		</g>
		<g>
			<path d="M821.9,804.2h-39.4v-19.4h39.4V804.2z M786.5,800.2h31.4v-11.4h-31.4V800.2z"/>
		</g>
		<g>
			<rect x="857.5" y="791.9" fill="#FCC29A" width="43.9" height="22.1"/>
		</g>
		<g>
			<path d="M903.4,880.9h-47.9V812h47.9V880.9z M859.5,876.9h39.9V816h-39.9V876.9z"/>
		</g>
		<g>
			<path d="M903.4,816h-47.9v-26.1h47.9V816z M859.5,812h39.9v-18.1h-39.9V812z"/>
		</g>
		<g>
			<rect x="901.4" y="789.9" width="6.1" height="4"/>
		</g>
		<g>
			<rect x="701.9" y="791.9" fill="#FCC29A" width="43.9" height="22.1"/>
		</g>
		<g>
			<path d="M748.1,880.9h-47.9V812h47.9V880.9z M704.2,876.9h39.9V816h-39.9V876.9z"/>
		</g>
		<g>
			<path d="M747.9,816h-47.9v-26.1h47.9V816z M703.9,812h39.9v-18.1h-39.9V812z"/>
		</g>
		<g>
			<rect x="695.8" y="789.9" width="6.1" height="4"/>
		</g>
		<g>
			<rect x="872.3" y="801.2" width="14.6" height="4"/>
		</g>
		<g>
			<rect x="716.2" y="801.2" width="14.6" height="4"/>
		</g>
		<g>
			<path d="M850.4,777h-9.9v-13.1h9.9V777z M844.5,773h1.9v-5.1h-1.9V773z"/>
		</g>
		<g>
			<path d="M763.1,777h-9.9v-13.1h9.9V777z M757.3,773h1.9v-5.1h-1.9V773z"/>
		</g>
		<g>
			<path fill="#E2E2E2" d="M803,826.3L803,826.3c-12.7,0-23,10.3-23,23v29.6h46v-29.6C826,836.5,815.7,826.3,803,826.3z"/>
		</g>
		<g>
			<path d="M828,880.9h-50v-31.6c0-13.8,11.2-25,25-25s25,11.2,25,25V880.9z M782.1,876.9h42v-27.6c0-11.6-9.4-21-21-21
				s-21,9.4-21,21V876.9z"/>
		</g>
		<g>
			<g>
				<rect x="707.5" y="814" width="4" height="4.9"/>
			</g>
			<g>
				<rect x="714.7" y="814" width="4" height="4.9"/>
			</g>
			<g>
				<rect x="721.8" y="814" width="4" height="4.9"/>
			</g>
			<g>
				<rect x="728.9" y="814" width="4" height="4.9"/>
			</g>
			<g>
				<rect x="736.1" y="814" width="4" height="4.9"/>
			</g>
		</g>
		<g>
			<g>
				<rect x="862.9" y="814" width="4" height="4.9"/>
			</g>
			<g>
				<rect x="870" y="814" width="4" height="4.9"/>
			</g>
			<g>
				<rect x="877.2" y="814" width="4" height="4.9"/>
			</g>
			<g>
				<rect x="884.3" y="814" width="4" height="4.9"/>
			</g>
			<g>
				<rect x="891.5" y="814" width="4" height="4.9"/>
			</g>
		</g>
	</g>
	<g>
		<g>
			<rect x="86.2" y="789.2" fill="#38A0C4" width="33.8" height="89.7"/>
			<path d="M122,880.9H84.2v-93.7H122V880.9z M88.2,876.9H118v-85.7H88.2V876.9z"/>
		</g>
		<g>
			<rect x="210.6" y="789.2" fill="#38A0C4" width="33.8" height="89.7"/>
			<path d="M246.4,880.9h-37.8v-93.7h37.8V880.9z M212.6,876.9h29.8v-85.7h-29.8V876.9z"/>
		</g>
		<g>
			<polygon fill="#38A0C4" points="210.6,809.4 210.6,878.9 120,878.9 120,809.4 134.2,809.4 134.2,821 196.6,821 196.6,809.4 			
				"/>
			<path d="M212.6,880.9H118v-73.4h18.2V819h58.5v-11.6h18V880.9z M122,876.9h86.7v-65.4h-10V823h-66.5v-11.6H122V876.9z"/>
		</g>
		<g>
			<path fill="#E2E2E2" d="M114.4,788.3c0,0.3,0,0.6,0,0.9H91.9c0-0.3,0-0.6,0-0.9c0-6.2,5.1-11.3,11.3-11.3
				C109.4,777,114.4,782.1,114.4,788.3z"/>
		</g>
		<g>
			<rect x="118" y="783.1" width="4" height="6.1"/>
		</g>
		<g>
			<rect x="84.2" y="783.1" width="4" height="6.1"/>
		</g>
		<g>
			<rect x="101.1" y="764.9" width="4" height="12.1"/>
		</g>
		<g>
			<rect x="98.8" y="767.4" width="8.8" height="4"/>
		</g>
		<g>
			<rect x="163.6" y="670.1" width="4" height="12.1"/>
		</g>
		<g>
			<rect x="161.3" y="672.5" width="8.8" height="4"/>
		</g>
		<g>
			<path fill="#E2E2E2" d="M238.8,788.3c0,0.3,0,0.6,0,0.9h-22.5c0-0.3,0-0.6,0-0.9c0-6.2,5.1-11.3,11.3-11.3
				C233.8,777,238.8,782.1,238.8,788.3z"/>
		</g>
		<g>
			<path d="M116.2,791.2H90.1l-0.2-1.8c0-0.4-0.1-0.7-0.1-1.1c0-7.3,6-13.3,13.3-13.3s13.3,6,13.3,13.3c0,0.4,0,0.7,0,1.1
				L116.2,791.2z M93.9,787.2h18.4c-0.6-4.6-4.5-8.2-9.2-8.2C98.4,779,94.5,782.6,93.9,787.2z"/>
		</g>
		<g>
			<path d="M240.6,791.2h-26.1l-0.2-1.8c0-0.4-0.1-0.7-0.1-1.1c0-7.3,6-13.3,13.3-13.3s13.3,6,13.3,13.3c0,0.4,0,0.7-0.1,1.1
				L240.6,791.2z M218.3,787.2h18.4c-0.6-4.6-4.5-8.2-9.2-8.2S218.9,782.6,218.3,787.2z"/>
		</g>
		<g>
			<rect x="242.4" y="783.1" width="4" height="6.1"/>
		</g>
		<g>
			<rect x="208.6" y="783.1" width="4" height="6.1"/>
		</g>
		<g>
			<rect x="225.6" y="764.9" width="4" height="12.1"/>
		</g>
		<g>
			<rect x="223.2" y="767.4" width="8.8" height="4"/>
		</g>
		<g>
			<polygon fill="#38A0C4" points="196.8,743.2 196.8,809.4 196.6,809.4 165.5,776.3 165.4,776.4 165.3,776.3 134.2,809.4 
				134.2,743.2 			"/>
			<path d="M132.2,814.5v-73.3h66.6v70.2h-3l-30.2-32.2l0,0l-0.1-0.1L132.2,814.5z M165.4,773.3l29.4,31.2v-59.4h-58.6v59.2l29.1-31
				l0,0L165.4,773.3z"/>
		</g>
		<g>
			<polygon fill="#38A0C4" points="165.5,776.3 165.4,776.4 165.3,776.3 134.2,809.4 134.2,821 165.3,821 165.5,821 196.6,821 
				196.6,809.4 			"/>
			<path d="M198.6,823h-66.5v-14.4l33.1-35.2l0.1,0.1l0.1-0.1l33.1,35.2V823z M136.2,819h58.5v-8.8l-29.2-31l-0.1,0.1l-0.1-0.1
				l-29.2,31V819z"/>
		</g>
		<g>
			<path fill="#E2E2E2" d="M144,743.2h-9.9v-5.3c0-2.7,2.2-4.9,4.9-4.9h0c2.7,0,4.9,2.2,4.9,4.9V743.2z"/>
		</g>
		<g>
			<rect x="137.1" y="725.5" width="4" height="7.4"/>
		</g>
		<g>
			<path fill="#E2E2E2" d="M196.6,743.2h-9.9v-5.3c0-2.7,2.2-4.9,4.9-4.9h0c2.7,0,4.9,2.2,4.9,4.9V743.2z"/>
		</g>
		<g>
			<rect x="189.7" y="725.5" width="4" height="7.4"/>
		</g>
		<g>
			<polygon fill="#38A0C4" points="186.8,706.9 175.7,696.9 154.9,696.9 144,706.9 144,743.2 186.8,743.2 			"/>
			<path d="M188.8,745.2H142V706l12.1-11.1h22.4l12.3,11.1V745.2z M146,741.2h38.7v-33.4l-9.8-8.9h-19.3l-9.6,8.9V741.2z"/>
		</g>
		<g>
			<line fill="#38A0C4" x1="154.9" y1="696.9" x2="154.9" y2="743.2"/>
			<rect x="152.9" y="696.9" width="4" height="46.3"/>
		</g>
		<g>
			<line fill="#38A0C4" x1="175.7" y1="696.9" x2="175.7" y2="743.2"/>
			<rect x="173.7" y="696.9" width="4" height="46.3"/>
		</g>
		<g>
			<rect x="134.2" y="750.1" width="62.6" height="4"/>
		</g>
		<g>
			<rect x="134.4" y="759" width="62.6" height="4"/>
		</g>
		<g>
			<path d="M172.6,763h-14.1v-21.8h14.1V763z M162.4,759h6.1v-13.8h-6.1V759z"/>
		</g>
		<g>
			<circle fill="#E2E2E2" cx="165.5" cy="795.1" r="7.2"/>
		</g>
		<g>
			<rect x="163.3" y="766.4" width="4" height="9.9"/>
		</g>
		<g>
			<rect x="154" y="813.6" fill="#E2E2E2" width="7.7" height="7.4"/>
		</g>
		<g>
			<path fill="#E2E2E2" d="M169.3,821h-7.7v-9.3c0-2.1,1.7-3.8,3.8-3.8l0,0c2.1,0,3.8,1.7,3.8,3.8V821z"/>
		</g>
		<g>
			<rect x="169.3" y="813.6" fill="#E2E2E2" width="7.7" height="7.4"/>
		</g>
		<g>
			<path d="M165.5,804.3c-5.1,0-9.2-4.1-9.2-9.2s4.1-9.2,9.2-9.2c5.1,0,9.2,4.1,9.2,9.2S170.6,804.3,165.5,804.3z M165.5,789.9
				c-2.9,0-5.2,2.3-5.2,5.2s2.3,5.2,5.2,5.2c2.9,0,5.2-2.3,5.2-5.2S168.4,789.9,165.5,789.9z"/>
		</g>
		<g>
			<path d="M163.6,823H152v-11.4h11.7V823z M156,819h3.7v-3.4H156V819z"/>
		</g>
		<g>
			<path d="M171.3,823h-11.7v-11.3c0-3.2,2.6-5.8,5.8-5.8s5.8,2.6,5.8,5.8V823z M163.6,819h3.7v-7.3c0-1-0.8-1.8-1.8-1.8
				s-1.8,0.8-1.8,1.8V819z"/>
		</g>
		<g>
			<path d="M179,823h-11.7v-11.4H179V823z M171.3,819h3.7v-3.4h-3.7V819z"/>
		</g>
		<g>
			<rect x="134.2" y="821" fill="#38A0C4" width="62.5" height="57.8"/>
			<path d="M198.6,880.9h-66.5V819h66.5V880.9z M136.2,876.9h58.5V823h-58.5V876.9z"/>
		</g>
		<g>
			<path fill="#E2E2E2" d="M186.8,704.8c0,0.7,0,1.3-0.1,2l-10.9-9.9h-20.9l-10.8,9.9c-0.1-0.7-0.1-1.3-0.1-2
				c0-11.8,9.6-21.4,21.4-21.4C177.2,683.4,186.8,693,186.8,704.8z"/>
		</g>
		<g>
			<path d="M146,745.2h-13.9v-7.3c0-3.8,3.1-6.9,6.9-6.9s6.9,3.1,6.9,6.9V745.2z M136.2,741.2h5.9v-3.3c0-1.6-1.3-2.9-2.9-2.9
				s-2.9,1.3-2.9,2.9V741.2z"/>
		</g>
		<g>
			<path d="M198.6,745.2h-13.9v-7.3c0-3.8,3.1-6.9,6.9-6.9s6.9,3.1,6.9,6.9V745.2z M188.8,741.2h5.9v-3.3c0-1.6-1.3-2.9-2.9-2.9
				s-2.9,1.3-2.9,2.9V741.2z"/>
		</g>
		<g>
			<path d="M142.6,711l-0.4-4c-0.1-0.7-0.1-1.4-0.1-2.2c0-12.9,10.5-23.4,23.4-23.4s23.4,10.5,23.4,23.4c0,0.8,0,1.5-0.1,2.2
				l-0.4,3.9l-13.3-12h-19.3L142.6,711z M154.1,694.9h22.4l8.1,7.3c-1.3-9.5-9.4-16.8-19.2-16.8c-9.8,0-17.9,7.3-19.2,16.8
				L154.1,694.9z"/>
		</g>
		<g>
			<path fill="#E2E2E2" d="M174.7,878.9h-18.7v-17.2c0-5.2,4.2-9.4,9.4-9.4h0c5.2,0,9.4,4.2,9.4,9.4V878.9z"/>
		</g>
		<g>
			<path d="M176.7,880.9h-22.7v-19.2c0-6.3,5.1-11.4,11.4-11.4s11.4,5.1,11.4,11.4V880.9z M157.9,876.9h14.7v-15.2
				c0-4.1-3.3-7.4-7.4-7.4s-7.4,3.3-7.4,7.4V876.9z"/>
		</g>
		<g>
			<path fill="#E2E2E2" d="M178.2,837.3c0-4.1,3.3-7.3,7.3-7.3c4.1,0,7.3,3.3,7.3,7.3H178.2z"/>
		</g>
		<g>
			<rect x="86.2" y="800.3" width="33.8" height="4"/>
		</g>
		<g>
			<rect x="210.8" y="800.3" width="33.8" height="4"/>
		</g>
		<g>
			<rect x="196.6" y="833.7" width="47.8" height="4"/>
		</g>
		<g>
			<rect x="86.4" y="833.7" width="48" height="4"/>
		</g>
		<g>
			<path fill="#E2E2E2" d="M224.4,878.9h-6.5v-54.6c0-1.8,1.5-3.3,3.3-3.3h0c1.8,0,3.3,1.5,3.3,3.3V878.9z"/>
		</g>
		<g>
			<path fill="#E2E2E2" d="M237.6,878.9h-6.5v-54.6c0-1.8,1.5-3.3,3.3-3.3h0c1.8,0,3.3,1.5,3.3,3.3V878.9z"/>
		</g>
		<g>
			<path d="M226.4,880.9h-10.5v-56.6c0-2.9,2.4-5.3,5.3-5.3c2.9,0,5.3,2.4,5.3,5.3V880.9z M219.9,876.9h2.5v-52.6
				c0-0.7-0.6-1.3-1.3-1.3c-0.7,0-1.3,0.6-1.3,1.3V876.9z"/>
		</g>
		<g>
			<path d="M239.6,880.9h-10.5v-56.6c0-2.9,2.4-5.3,5.3-5.3s5.3,2.4,5.3,5.3V880.9z M233.1,876.9h2.5v-52.6c0-0.7-0.6-1.3-1.3-1.3
				s-1.3,0.6-1.3,1.3V876.9z"/>
		</g>
		<g>
			<path fill="#E2E2E2" d="M99.9,878.9h-6.5v-54.6c0-1.8,1.5-3.3,3.3-3.3l0,0c1.8,0,3.3,1.5,3.3,3.3V878.9z"/>
		</g>
		<g>
			<path fill="#E2E2E2" d="M113.1,878.9h-6.5v-54.6c0-1.8,1.5-3.3,3.3-3.3l0,0c1.8,0,3.3,1.5,3.3,3.3V878.9z"/>
		</g>
		<g>
			<path d="M101.9,880.9H91.4v-56.6c0-2.9,2.4-5.3,5.3-5.3s5.3,2.4,5.3,5.3V880.9z M95.4,876.9h2.5v-52.6c0-0.7-0.6-1.3-1.3-1.3
				s-1.3,0.6-1.3,1.3V876.9z"/>
		</g>
		<g>
			<path d="M115.1,880.9h-10.5v-56.6c0-2.9,2.4-5.3,5.3-5.3c2.9,0,5.3,2.4,5.3,5.3V880.9z M108.6,876.9h2.5v-52.6
				c0-0.7-0.6-1.3-1.3-1.3c-0.7,0-1.3,0.6-1.3,1.3V876.9z"/>
		</g>
		<g>
			<g>
				<rect x="215.9" y="802.3" width="4" height="5.6"/>
			</g>
			<g>
				<rect x="222.4" y="802.3" width="4" height="5.6"/>
			</g>
			<g>
				<rect x="228.9" y="802.3" width="4" height="5.6"/>
			</g>
			<g>
				<rect x="235.4" y="802.3" width="4" height="5.6"/>
			</g>
		</g>
		<g>
			<g>
				<rect x="91.4" y="802.3" width="4" height="5.6"/>
			</g>
			<g>
				<rect x="97.9" y="802.3" width="4" height="5.6"/>
			</g>
			<g>
				<rect x="104.4" y="802.3" width="4" height="5.6"/>
			</g>
			<g>
				<rect x="110.9" y="802.3" width="4" height="5.6"/>
			</g>
		</g>
		<g>
			<path d="M198.6,846.6H172v-11.2h26.7V846.6z M176,842.6h18.7v-3.2H176V842.6z"/>
		</g>
		<g>
			<path fill="#E2E2E2" d="M138.4,837.3c0-4.1,3.3-7.3,7.3-7.3s7.3,3.3,7.3,7.3H138.4z"/>
		</g>
		<g>
			<path d="M194.9,839.3h-18.7v-2c0-5.1,4.2-9.3,9.3-9.3s9.3,4.2,9.3,9.3V839.3z M180.6,835.3h9.9c-0.8-2-2.7-3.3-4.9-3.3
				S181.4,833.4,180.6,835.3z"/>
		</g>
		<g>
			<path d="M155.1,839.3h-18.7v-2c0-5.1,4.2-9.3,9.3-9.3s9.3,4.2,9.3,9.3V839.3z M140.8,835.3h9.9c-0.8-2-2.7-3.3-4.9-3.3
				S141.6,833.4,140.8,835.3z"/>
		</g>
		<g>
			<path d="M158.9,846.6h-26.7v-11.2h26.7V846.6z M136.2,842.6h18.7v-3.2h-18.7V842.6z"/>
		</g>
		<g>
			<rect x="141.1" y="761" width="4" height="14.2"/>
		</g>
		<g>
			<rect x="141.1" y="779.5" width="4" height="7.1"/>
		</g>
		<g>
			<rect x="150" y="761" width="4" height="14.2"/>
		</g>
		<g>
			<rect x="186" y="761" width="4" height="14.2"/>
		</g>
		<g>
			<rect x="186" y="779.5" width="4" height="7.1"/>
		</g>
		<g>
			<rect x="177.2" y="761" width="4" height="14.2"/>
		</g>
	</g>
	<g>
		<g>
			<path fill="#A2C4DD" d="M155.4,531.2C155.4,531.2,155.4,531.2,155.4,531.2c0-7.3,5.9-13.1,13.1-13.1c1.8,0,3.4,0.4,5,1
				c2.6-7.3,9.6-12.5,17.8-12.5c10.4,0,18.9,8.5,18.9,18.9c0,2-0.3,4-0.9,5.8L155.4,531.2z"/>
		</g>
		<g>
			<path d="M210.8,533.2h-57.3l0-2c0-8.3,6.8-15.1,15.1-15.1c1.3,0,2.6,0.2,3.8,0.5c3.4-7.3,10.8-12.1,18.9-12.1
				c11.5,0,20.9,9.4,20.9,20.9c0,2.2-0.3,4.3-1,6.4L210.8,533.2z M157.6,529.2h50.2c0.3-1.2,0.4-2.5,0.4-3.8
				c0-9.3-7.6-16.9-16.9-16.9c-7.1,0-13.5,4.5-15.9,11.2l-0.7,2l-1.9-0.8c-1.3-0.6-2.8-0.8-4.2-0.8
				C163.1,520.1,158.5,524,157.6,529.2z"/>
		</g>
		<g>
			<rect x="131.7" y="529.2" width="32.5" height="4"/>
		</g>
		<g>
			<rect x="121.2" y="522.7" width="19.1" height="4"/>
		</g>
	</g>
	<g>
		<g>
			<g>
				<rect x="944.7" y="844.2" fill="#68C4A2" width="14" height="34.7"/>
				<path d="M960.7,880.9h-18v-38.7h18V880.9z M946.7,876.9h10v-30.7h-10V876.9z"/>
			</g>
			<g>
				<rect x="979.4" y="844.2" fill="#68C4A2" width="14" height="34.7"/>
				<path d="M995.4,880.9h-18v-38.7h18V880.9z M981.4,876.9h10v-30.7h-10V876.9z"/>
			</g>
			<g>
				<rect x="1014" y="844.2" fill="#68C4A2" width="14" height="34.7"/>
				<path d="M1030,880.9h-18v-38.7h18V880.9z M1016,876.9h10v-30.7h-10V876.9z"/>
			</g>
			<g>
				<rect x="1048.7" y="844.2" fill="#68C4A2" width="14" height="34.7"/>
				<path d="M1064.7,880.9h-18v-38.7h18V880.9z M1050.7,876.9h10v-30.7h-10V876.9z"/>
			</g>
			<g>
				<rect x="1083.3" y="844.2" fill="#68C4A2" width="14" height="34.7"/>
				<path d="M1099.3,880.9h-18v-38.7h18V880.9z M1085.3,876.9h10v-30.7h-10V876.9z"/>
			</g>
			<g>
				<rect x="1118" y="844.2" fill="#68C4A2" width="14" height="34.7"/>
				<path d="M1134,880.9h-18v-38.7h18V880.9z M1120,876.9h10v-30.7h-10V876.9z"/>
			</g>
			<g>
				<rect x="941.5" y="822.1" fill="#68C4A2" width="20.4" height="6.2"/>
				<path d="M963.9,830.2h-24.4v-10.2h24.4V830.2z M943.5,826.2h16.4v-2.2h-16.4V826.2z"/>
			</g>
			<g>
				<rect x="976.2" y="822.1" fill="#68C4A2" width="20.4" height="6.2"/>
				<path d="M998.5,830.2h-24.4v-10.2h24.4V830.2z M978.2,826.2h16.4v-2.2h-16.4V826.2z"/>
			</g>
			<g>
				<rect x="1010.8" y="822.1" fill="#68C4A2" width="20.4" height="6.2"/>
				<path d="M1033.2,830.2h-24.4v-10.2h24.4V830.2z M1012.8,826.2h16.4v-2.2h-16.4V826.2z"/>
			</g>
			<g>
				<rect x="1045.5" y="822.1" fill="#68C4A2" width="20.4" height="6.2"/>
				<path d="M1067.9,830.2h-24.4v-10.2h24.4V830.2z M1047.5,826.2h16.4v-2.2h-16.4V826.2z"/>
			</g>
			<g>
				<rect x="1080.1" y="822.1" fill="#68C4A2" width="20.4" height="6.2"/>
				<path d="M1102.5,830.2h-24.4v-10.2h24.4V830.2z M1082.1,826.2h16.4v-2.2h-16.4V826.2z"/>
			</g>
			<g>
				<rect x="1114.8" y="822.1" fill="#68C4A2" width="20.4" height="6.2"/>
				<path d="M1137.2,830.2h-24.4v-10.2h24.4V830.2z M1116.8,826.2h16.4v-2.2h-16.4V826.2z"/>
			</g>
			<g>
				<rect x="946" y="828.2" fill="#68C4A2" width="11.2" height="16"/>
				<path d="M959.3,846.2H944v-20h15.2V846.2z M948,842.2h7.2v-12H948V842.2z"/>
			</g>
			<g>
				<rect x="980.7" y="828.2" fill="#68C4A2" width="11.2" height="16"/>
				<path d="M994,846.2h-15.2v-20H994V846.2z M982.7,842.2h7.2v-12h-7.2V842.2z"/>
			</g>
			<g>
				<rect x="1015.4" y="828.2" fill="#68C4A2" width="11.2" height="16"/>
				<path d="M1028.7,846.2h-15.2v-20h15.2V846.2z M1017.4,842.2h7.2v-12h-7.2V842.2z"/>
			</g>
			<g>
				<rect x="1050.1" y="828.2" fill="#68C4A2" width="11.2" height="16"/>
				<path d="M1063.4,846.2h-15.2v-20h15.2V846.2z M1052.1,842.2h7.2v-12h-7.2V842.2z"/>
			</g>
			<g>
				<rect x="1084.8" y="828.2" fill="#68C4A2" width="11.2" height="16"/>
				<path d="M1098.1,846.2h-15.2v-20h15.2V846.2z M1086.8,842.2h7.2v-12h-7.2V842.2z"/>
			</g>
			<g>
				<rect x="1119.5" y="828.2" fill="#68C4A2" width="11.2" height="16"/>
				<path d="M1132.8,846.2h-15.2v-20h15.2V846.2z M1121.5,842.2h7.2v-12h-7.2V842.2z"/>
			</g>
			<g>
				<rect x="946" y="814.9" fill="#68C4A2" width="11.2" height="7.1"/>
				<path d="M959.3,824.1H944v-11.1h15.2V824.1z M948,820.1h7.2v-3.1H948V820.1z"/>
			</g>
			<g>
				<rect x="980.7" y="814.9" fill="#68C4A2" width="11.2" height="7.1"/>
				<path d="M994,824.1h-15.2v-11.1H994V824.1z M982.7,820.1h7.2v-3.1h-7.2V820.1z"/>
			</g>
			<g>
				<rect x="1015.4" y="814.9" fill="#68C4A2" width="11.2" height="7.1"/>
				<path d="M1028.7,824.1h-15.2v-11.1h15.2V824.1z M1017.4,820.1h7.2v-3.1h-7.2V820.1z"/>
			</g>
			<g>
				<rect x="1050.1" y="814.9" fill="#68C4A2" width="11.2" height="7.1"/>
				<path d="M1063.4,824.1h-15.2v-11.1h15.2V824.1z M1052.1,820.1h7.2v-3.1h-7.2V820.1z"/>
			</g>
			<g>
				<rect x="1084.8" y="814.9" fill="#68C4A2" width="11.2" height="7.1"/>
				<path d="M1098.1,824.1h-15.2v-11.1h15.2V824.1z M1086.8,820.1h7.2v-3.1h-7.2V820.1z"/>
			</g>
			<g>
				<rect x="1119.5" y="814.9" fill="#68C4A2" width="11.2" height="7.1"/>
				<path d="M1132.8,824.1h-15.2v-11.1h15.2V824.1z M1121.5,820.1h7.2v-3.1h-7.2V820.1z"/>
			</g>
			<g>
				<rect x="941.5" y="806.2" fill="#68C4A2" width="193.7" height="8.7"/>
				<path d="M1137.2,816.9H939.5v-12.7h197.7V816.9z M943.5,812.9h189.7v-4.7H943.5V812.9z"/>
			</g>
		</g>
		<g>
			<rect x="934.3" y="798.4" width="208.1" height="4"/>
		</g>
	</g>
	<g>
		<g>
			<circle fill="#9A6C29" cx="252.9" cy="840" r="21.9"/>
		</g>
		<g>
			<path d="M252.9,863.9c-13.2,0-23.9-10.7-23.9-23.9s10.7-23.9,23.9-23.9s23.9,10.7,23.9,23.9S266.1,863.9,252.9,863.9z
				 M252.9,820.1c-11,0-19.9,8.9-19.9,19.9c0,11,8.9,19.9,19.9,19.9s19.9-8.9,19.9-19.9C272.8,829,263.9,820.1,252.9,820.1z"/>
		</g>
		<g>
			<rect x="250.9" y="831.1" width="4" height="47.8"/>
		</g>
		<g>
			<rect x="255" y="842.4" transform="matrix(0.7071 0.7071 -0.7071 0.7071 675.075 66.6956)" width="4" height="11.6"/>
		</g>
	</g>
	<g>
		<g>
			<path fill="#38A0C4" d="M669.5,819.3l-13.7,29.8c-2.1,4.5,1.2,9.6,6.2,9.6h26.3c4.9,0,8.1-5,6.3-9.4l-12.6-29.8
				C679.6,814.1,671.9,814,669.5,819.3z"/>
			<path d="M688.2,860.8h-26.3c-3,0-5.8-1.5-7.4-4.1c-1.6-2.5-1.8-5.7-0.6-8.4l13.7-29.8c1.5-3.2,4.5-5.1,8-5.1
				c3.6,0,6.7,2.1,8.1,5.4l12.6,29.8c1.1,2.7,0.9,5.8-0.8,8.3C693.9,859.3,691.2,860.8,688.2,860.8z M675.6,817.4
				c-1.9,0-3.5,1-4.3,2.8L657.5,850c-0.7,1.5-0.6,3.2,0.3,4.6c0.9,1.4,2.4,2.2,4,2.2h26.3c1.6,0,3.1-0.8,4-2.1
				c0.9-1.4,1.1-3,0.4-4.5L680,820.3C679.1,818.2,677.2,817.4,675.6,817.4z"/>
		</g>
		<g>
			<line fill="#F49549" x1="674.9" y1="837.1" x2="674.9" y2="879.1"/>
			<rect x="672.9" y="837.1" width="4" height="42.1"/>
		</g>
		<g>
			<line fill="#F49549" x1="667" y1="842.4" x2="674.9" y2="849.2"/>
			<rect x="665.8" y="843.8" transform="matrix(0.7535 0.6575 -0.6575 0.7535 721.5302 -232.6169)" width="10.4" height="4"/>
		</g>
	</g>
</g>
</svg>
